<?xml version="1.0" encoding="UTF-8" standalone="no"?> <!-- Created with Vectornator (http://vectornator.io/) --><!DOCTYPE svg PUBLIC "-//W3C//DTD SVG 1.1//EN" "http://www.w3.org/Graphics/SVG/1.1/DTD/svg11.dtd">
<svg height="100%" stroke-miterlimit="10" style="fill-rule:nonzero;clip-rule:evenodd;stroke-linecap:round;stroke-linejoin:round;" version="1.1" viewBox="0 0 5120 2280" width="100%" xml:space="preserve" xmlns="http://www.w3.org/2000/svg" xmlns:vectornator="http://vectornator.io" xmlns:xlink="http://www.w3.org/1999/xlink">
<metadata>
<vectornator:setting key="IsTimeLapseWatermarkDisabled" value="false"/>
<vectornator:setting key="UndoHistoryDisabled" value="true"/>
<vectornator:setting key="VNDimensionsVisible" value="true"/>
<vectornator:setting key="VNSnapToGuides" value="true"/>
<vectornator:setting key="WDCMYKEnabledKey" value="false"/>
<vectornator:setting key="WDDisplayWhiteBackground" value="false"/>
<vectornator:setting key="WDDynamicGuides" value="false"/>
<vectornator:setting key="WDGuidesVisible" value="true"/>
<vectornator:setting key="WDIsolateActiveLayer" value="false"/>
<vectornator:setting key="WDOutlineMode" value="false"/>
<vectornator:setting key="WDRulersVisible" value="true"/>
<vectornator:setting key="WDSnapToEdges" value="false"/>
<vectornator:setting key="WDSnapToGrid" value="false"/>
<vectornator:setting key="WDSnapToPoints" value="false"/>
<vectornator:setting key="WDUnits" value="Pixels"/>
</metadata>
<defs/>
<g id="Layer-1" vectornator:layerName="Layer 1">
<path d="M1293.02 977.288C1287.95 972.226 1282.89 967.164 1277.83 962.102" fill="none" fill-rule="evenodd" opacity="1" stroke="none"/>
<path d="M941.559 877.492C946.621 873.153 950.726 867.341 956.746 864.475C966.252 859.948 977.777 860.654 987.119 855.797C996.238 851.055 1003.72 843.539 1010.98 836.271C1037.75 809.504 1060.89 779.089 1089.08 753.831C1124.85 721.79 1163.35 692.5 1204.07 667.051C1236.5 646.783 1262.94 634.251 1299.53 623.661C1310.83 620.388 1322.49 617.991 1334.24 617.153C1342.92 616.532 1352.29 615.85 1360.27 619.322C1369.7 623.42 1378.03 630.582 1384.14 638.847C1390.68 647.705 1394.48 658.534 1397.15 669.22C1400.33 681.926 1401.2 695.177 1401.49 708.271C1403 776.292 1387.08 842.538 1381.97 910.034C1380.22 933.12 1378.12 956.366 1379.8 979.458C1381.03 996.434 1384.24 1013.59 1390.64 1029.36C1393.92 1037.42 1400.97 1043.74 1408 1048.88C1420.02 1057.67 1433 1065.66 1447.05 1070.58C1462.31 1075.92 1478.72 1077.34 1494.78 1079.25C1529.27 1083.36 1557.4 1080.71 1592.41 1079.25C1624.21 1077.93 1656.04 1077.08 1687.86 1077.08" fill="none" fill-rule="evenodd" opacity="1" stroke="none"/>
<g opacity="1">
<path d="M1060.84 380.594C1059.68 380.631 1058.51 380.78 1057.34 381.031C1053.19 381.921 1049.34 383.83 1045.66 385.875C1038.31 389.955 1031.49 395.151 1023.75 398.5C1021.66 399.403 1019.47 400.105 1017.34 400.906C1015.09 401.754 1012.86 402.618 1010.62 403.5C1002.8 406.585 995.053 409.888 987.312 413.188C966.399 422.103 945.699 431.568 924.156 438.906C901.187 446.731 877.329 451.405 853.719 456.812C840.786 459.774 828.016 463.261 815.219 466.75C796.89 471.747 778.653 477.118 760.406 482.406C740.31 488.231 720.194 494.021 700.125 499.938C675.3 507.256 650.559 514.854 625.656 521.906C617.659 524.171 609.637 526.321 601.625 528.531C593.618 530.74 585.632 533.033 577.594 535.125C569.189 537.312 560.728 539.3 552.156 540.719C545.923 541.751 539.672 542.524 533.344 542.531C524.972 542.541 516.624 541.546 508.312 540.656C505.65 540.371 503.011 540.081 500.344 539.844C498.747 539.702 497.04 539.758 495.469 539.406C493.529 538.972 491.667 538.131 489.812 537.438C486.996 536.385 484.156 535.358 481.219 534.688C479.186 534.223 476.897 533.792 474.844 534.375C470.878 535.5 471.331 540.569 472.344 543.656C472.558 544.309 472.776 544.938 473.062 545.562C473.396 546.292 473.843 547.129 474.25 547.812C474.597 548.395 474.963 548.97 475.344 549.531C475.957 550.433 476.547 551.328 477.219 552.188C481.61 557.801 486.646 562.859 491.875 567.688C494.273 569.902 496.739 572.066 499.219 574.188C499.961 574.823 500.751 575.404 501.5 576.031C502.984 577.533 505.165 579.334 507.938 581.312C512.133 584.631 516.382 587.872 520.719 591C519.957 590.424 519.192 589.835 518.438 589.25C517.233 588.315 516.028 587.398 514.844 586.438C514.16 585.883 513.566 585.296 512.906 584.75C515.893 586.647 519.232 588.589 522.812 590.531C537.135 598.301 549.796 602.709 551.062 600.375C547.2 596.313 543.088 592.523 538.938 588.781C539.687 586.722 542.789 588.165 544.125 588.656C544.468 588.782 544.814 588.935 545.156 589.062C545.552 589.211 545.948 589.352 546.344 589.5C546.792 589.668 547.238 589.835 547.688 590C548.177 590.18 548.665 590.357 549.156 590.531C550.235 590.914 551.311 591.291 552.406 591.625C554.043 592.124 555.714 592.549 557.406 592.812C560.438 593.284 563.541 593.378 566.594 593.688C573.222 594.359 579.852 595.187 586.5 595.656C591.934 596.04 597.404 596.186 602.844 595.844C611.167 595.32 619.452 593.785 627.594 592.031C642.53 588.815 657.177 584.402 671.906 580.375C703.14 571.836 734.102 562.375 765.156 553.219C782.844 548.004 800.575 542.903 818.281 537.75C844.82 530.026 871.361 522.332 898.062 515.188C912.774 511.251 927.689 508.169 942.531 504.781C942.593 504.767 942.657 504.764 942.719 504.75C937.167 513.134 931.698 521.585 926.438 530.156C919.133 542.058 912.334 554.257 906.531 566.969C900.863 579.385 896.159 592.29 891.625 605.156C883.938 626.97 877.21 649.104 871.094 671.406C867.395 684.895 863.895 698.432 860.5 712C857.156 725.368 853.95 738.768 851.094 752.25C843.915 786.138 838.439 820.345 832.531 854.469C828.137 879.85 823.265 905.149 818.531 930.469C816.743 940.036 814.891 949.602 813.031 959.156C791.281 960.022 769.465 959.209 747.75 957.938C736.399 957.273 725.036 956.519 713.688 955.812C702.692 955.128 691.701 954.505 680.719 953.625C667.191 952.541 653.679 951.123 640.281 948.938C632.476 947.664 624.683 946.169 617.031 944.156C608.896 942.017 600.95 939.314 593.062 936.406C589.086 933.903 585.027 931.49 580.812 929.438C574.519 926.373 567.861 924.172 561.125 922.312C560.037 922.012 558.754 921.652 557.656 921.375C555.266 920.773 552.804 920.139 550.344 919.875C549.533 919.788 548.431 919.636 547.719 920.188C547.572 920.301 547.155 921.045 547.281 921.219C547.275 921.214 547.257 921.224 547.25 921.219C547.22 922.842 548.323 924.482 549.188 925.75C550.292 927.37 551.541 928.882 552.812 930.375C553.29 930.936 553.713 931.563 554.281 932.031C567.392 942.838 580.301 953.894 593.625 964.438C595.805 966.163 598.339 967.397 600.75 968.781C606.848 972.283 613.475 974.495 620 977.031C622.303 977.926 624.607 978.841 626.906 979.75C628.918 982.312 630.8 984.976 632.656 987.625C638.6 996.108 643.737 1005.15 649 1014.06C652.353 1019.74 655.797 1025.37 659.062 1031.09C664.482 1040.6 669.48 1050.36 674.594 1060.03C677.425 1065.39 680.364 1070.69 683.219 1076.03C688.469 1085.86 693.229 1095.94 698.969 1105.5C703.825 1113.59 709.38 1121.34 715.562 1128.47C722.247 1136.18 729.685 1143.22 737.438 1149.84C743.82 1155.29 750.4 1160.48 757.219 1165.38C762.484 1169.16 767.947 1172.62 773.531 1175.88C772.519 1177.57 771.479 1179.24 770.469 1180.94C754.158 1208.28 738.003 1235.74 719.781 1261.88C697.724 1293.51 673.351 1323.44 649.656 1353.84C642.698 1362.77 635.858 1371.8 629.219 1380.97C618.852 1395.29 608.578 1409.75 596.375 1422.59C577.992 1441.94 557.022 1458.5 537.031 1476.09C527.164 1484.78 517.53 1493.71 507.812 1502.56C488.718 1519.96 469.815 1537.56 451.656 1555.94C415.058 1592.98 380.646 1632.06 345.406 1670.38C339.882 1676.38 334.379 1682.42 328.969 1688.53C320.938 1697.6 312.931 1706.73 304.188 1715.12C286.007 1732.58 264.682 1746.21 244.594 1761.28C242.492 1762.86 240.345 1764.37 238.281 1766C236.22 1767.62 234.21 1769.36 232.188 1771.03C230.166 1772.7 228.121 1774.36 226.125 1776.06C222.275 1779.34 218.702 1782.96 215.156 1786.56C207.371 1794.47 199.708 1802.68 190.938 1809.53C190.594 1809.73 190.25 1809.93 189.906 1810.12C181.276 1815.09 172.722 1820.17 164.125 1825.19C152.079 1831.06 139.632 1836.2 127.125 1841C120.834 1843.42 113.733 1843.14 107.719 1846.38C104.275 1848.23 101.69 1851.33 99.625 1854.59C96.1505 1860.08 94.0529 1866.26 91.125 1872.03C85.4204 1876.5 79.867 1881.16 74.5625 1886.12C69.6303 1890.74 64.6991 1895.44 60.25 1900.53C59.3253 1901.59 58.3099 1902.68 57.6562 1903.94C57.4621 1904.31 57.1666 1904.95 57.2812 1905.38C57.5525 1906.38 57.5318 1907.62 58.3125 1908.31C75.8166 1923.72 93.3739 1939.17 111.844 1953.41C114.786 1955.67 118.689 1956.31 122.188 1957.56C122.571 1957.7 123.001 1957.56 123.406 1957.53C123.603 1957.52 123.778 1957.46 123.969 1957.41C125.477 1957 126.925 1956.06 128.25 1955.28C130.971 1953.68 133.542 1951.83 135.969 1949.81C140.842 1945.76 145.133 1941.05 149.219 1936.22C150.883 1934.25 152.596 1932.29 154.125 1930.22C155.412 1928.47 156.439 1926.55 157.438 1924.62C166.923 1917.22 176.832 1910.42 186.969 1903.94C199.12 1896.16 211.521 1888.73 223.969 1881.44C225.74 1880.4 227.54 1879.41 229.312 1878.38C230.106 1877.99 230.928 1877.67 231.719 1877.28C237.742 1874.32 243.795 1871.24 249.5 1867.69C251.706 1866.32 253.751 1864.75 255.812 1863.19C270.579 1854.69 285.293 1846.11 300.156 1837.78C317.6 1828.01 335.153 1818.44 352.625 1808.72C388.343 1788.84 423.846 1768.47 460.938 1751.22C501.694 1732.26 544.048 1717.04 586.219 1701.59C691.933 1662.86 799.752 1629.89 909.438 1604.41C958.385 1593.03 1007.71 1583.02 1057.31 1574.94C1141.88 1561.16 1227.63 1557.59 1312.72 1548.28C1349.8 1544.22 1386.6 1538.05 1423.59 1533.25C1434.97 1531.77 1446.36 1530.38 1457.78 1529.28C1464.41 1528.64 1471.06 1527.98 1477.72 1527.75C1492.17 1527.24 1506.61 1528.23 1521.06 1528.25C1532.67 1528.26 1544.27 1527.83 1555.88 1527.84C1564.75 1527.85 1573.61 1528.21 1582.47 1528.84C1612.69 1531.01 1642.76 1535.5 1673.09 1535.91C1673.22 1535.91 1673.34 1535.9 1673.47 1535.91C1657.63 1549.88 1640.79 1562.74 1624.53 1576.19C1542.98 1643.63 1459.78 1709.22 1380.91 1779.84C1351.44 1806.23 1322.7 1833.36 1294.78 1861.38C1292.42 1864.35 1305.31 1878.55 1323.59 1893.06C1341.88 1907.57 1358.64 1916.92 1361 1913.94C1397.45 1877.35 1435.38 1842.3 1474.31 1808.38C1542.38 1749.07 1613.13 1692.93 1682.69 1635.41C1692.02 1627.69 1701.38 1620.03 1710.81 1612.44C1728.3 1598.38 1745.69 1584.18 1761.16 1567.88C1762.76 1566.19 1764.35 1564.51 1765.94 1562.81C1773.69 1554.51 1783.06 1543.75 1781.34 1531.44C1781.02 1529.08 1779.84 1526.87 1778.47 1524.97C1777.47 1523.58 1776.45 1522.21 1775.31 1520.94C1772.79 1518.12 1770.25 1515.29 1767.47 1512.72C1761.93 1507.61 1756.28 1502.62 1750.38 1497.94C1744.96 1493.64 1739.29 1489.66 1733.56 1485.78C1730.55 1483.74 1727.36 1481.95 1724.19 1480.16C1722.63 1479.28 1721 1478.53 1719.38 1477.78C1717.61 1476.97 1715.74 1476.29 1713.84 1475.84C1706.48 1474.09 1699.2 1477.1 1691.84 1477.28C1687.91 1477.38 1683.93 1477.4 1680 1477.59C1676.23 1477.78 1672.45 1478.11 1668.69 1478.44C1652.25 1479.85 1635.93 1482.15 1619.41 1482.44C1586.09 1483.01 1553.06 1477.78 1519.91 1475.41C1513.74 1474.96 1507.58 1474.62 1501.41 1474.47C1487.23 1474.13 1473.02 1474.73 1458.84 1474.78C1441.72 1474.85 1424.58 1473.41 1407.47 1474.62C1396.86 1475.38 1386.28 1476.57 1375.72 1477.81C1356.09 1480.11 1336.53 1482.93 1316.97 1485.75C1298.54 1488.41 1280.11 1491.09 1261.62 1493.34C1250.06 1494.76 1238.47 1495.99 1226.88 1497.16C1147.03 1505.16 1066.7 1509.17 987.469 1522.47C875.093 1541.33 764.207 1568.71 655.469 1602.69C623.494 1612.68 591.696 1623.26 560.094 1634.38C543.901 1640.07 527.773 1645.94 511.656 1651.84C493.861 1658.36 476.061 1664.87 458.375 1671.69C458.353 1671.7 458.334 1671.71 458.312 1671.72C473.254 1655.36 488.282 1639.08 503.656 1623.12C515.215 1611.13 526.914 1599.28 538.938 1587.75C551.324 1575.87 564.002 1564.31 576.688 1552.75C584.525 1545.61 592.292 1538.35 600.25 1531.34C612.955 1520.16 625.981 1509.38 638.625 1498.12C649.938 1488.06 660.976 1477.6 670.781 1466.03C679.99 1455.17 688.233 1443.54 696.594 1432.03C702.931 1423.3 709.464 1414.69 716.094 1406.19C743.386 1371.17 771.588 1336.76 796.094 1299.69C815.627 1270.13 832.992 1239.23 851.531 1209.06C859.519 1196.06 867.817 1183.29 876.188 1170.53C886.137 1155.37 896.253 1140.28 906.531 1125.34C931.464 1089.11 957.564 1053.67 985.469 1019.66C995.473 1007.46 1005.56 995.313 1016.16 983.625C1022.74 981.094 1029.23 978.308 1035.5 975.031C1040.98 972.165 1046.44 969.072 1051.44 965.406C1054.05 963.487 1056.54 961.371 1058.94 959.188C1063.29 955.223 1067.62 951.003 1071 946.156C1072.32 944.261 1073.94 941.841 1073.72 939.406C1073.69 939.074 1073.66 938.726 1073.56 938.406C1073.38 937.803 1073.22 937.169 1072.91 936.625C1071.96 934.997 1071.11 933.265 1069.81 931.906C1063.09 924.897 1056.49 917.731 1048.94 911.625C1039.06 903.63 1028.29 896.758 1017.69 889.75C1015.76 888.474 1013.53 887.726 1011.41 886.812C1010.45 886.402 1009.1 886.007 1008 885.781C1005.41 885.25 1002.61 885.548 1000.06 886.125C992.738 887.784 986.759 892.757 981.562 897.938C977.397 902.091 973.629 906.626 969.5 910.812C965.299 915.073 960.923 919.147 956.781 923.469C954.526 925.822 952.35 928.245 950.156 930.656C945.145 932.573 940.118 934.459 935 936.062C923.801 939.571 912.437 942.618 901.062 945.5C897.958 946.287 894.837 947.01 891.719 947.75C894.124 934.844 896.608 921.96 898.875 909.031C904.658 876.049 909.896 842.965 916.625 810.156C921.453 786.62 927.273 763.266 933.375 740.031C940.189 714.083 947.637 688.319 956.344 662.938C959.124 654.832 962.034 646.755 965.094 638.75C967.651 632.059 970.274 625.394 973.25 618.875C981.773 600.205 992.514 582.697 1003.66 565.5C1009.33 556.748 1014.97 547.946 1021.09 539.5C1026.62 531.873 1032.59 524.57 1038.78 517.469C1050.91 503.547 1064.2 490.656 1078.03 478.438C1082.58 474.417 1087.23 470.517 1091.94 466.688C1094.48 464.617 1097 462.361 1099.81 460.656C1102.47 459.047 1105.35 457.803 1108.22 456.625C1112.7 454.783 1117.27 453.147 1121.78 451.375C1124.75 450.21 1127.7 448.998 1130.5 447.469C1131.66 446.837 1132.8 446.155 1133.84 445.344C1134.51 444.821 1135.15 444.253 1135.69 443.594C1138.98 439.577 1135.75 434.753 1133.16 431.312C1131.76 429.458 1130.28 427.665 1128.69 425.969C1126.91 424.074 1125.12 422.205 1123.25 420.406C1120.41 417.675 1117.58 414.943 1114.56 412.406C1109.12 407.823 1103.58 403.321 1097.88 399.062C1093.39 395.712 1088.72 392.614 1084 389.594C1081.34 387.893 1078.57 386.387 1075.78 384.906C1074.24 384.085 1072.64 383.375 1071.03 382.688C1067.75 381.286 1064.33 380.483 1060.84 380.594ZM665.531 993.875C670.712 995.493 675.93 997.035 681.219 998.281C713.173 1005.81 746.164 1007.41 778.812 1009.44C786.634 1009.92 794.48 1010.43 802.312 1010.91C797.938 1030.74 793.271 1050.5 787.969 1070.12C785.896 1077.79 783.897 1085.51 781.625 1093.12C780.497 1096.9 779.287 1100.64 777.938 1104.34C776.819 1107.41 775.624 1110.46 774.281 1113.44C772.024 1118.45 769.566 1123.55 766.406 1128.06C764.204 1131.21 761.51 1134.21 757.906 1135.75C757.36 1135.98 756.794 1136.12 756.219 1136.28C756.016 1135.89 755.795 1135.51 755.594 1135.12C753.214 1130.53 750.876 1125.91 748.438 1121.34C745.602 1116.04 742.687 1110.76 739.875 1105.44C735.75 1097.63 731.717 1089.78 727.438 1082.06C722.327 1072.84 716.886 1063.83 711.531 1054.75C703.305 1040.8 694.827 1027.01 684.562 1014.44C678.655 1007.2 672.2 1000.43 665.531 993.875ZM883.812 1012.25C881.875 1014.82 879.922 1017.38 878 1019.97C878.488 1017.49 878.955 1015.01 879.438 1012.53C880.897 1012.46 882.354 1012.33 883.812 1012.25Z" fill="#000000" stroke="none"/>
</g>
<g opacity="1">
<path d="M2868.56 131.312C2868.17 131.288 2867.76 131.338 2867.38 131.438C2865.79 131.845 2865.71 133.828 2865.78 135.125C2865.81 135.698 2865.86 136.272 2865.91 136.844C2865.95 137.417 2866 137.99 2866.06 138.562C2866.12 139.133 2866.21 139.712 2866.28 140.281C2866.35 140.851 2866.42 141.432 2866.5 142C2866.58 142.569 2866.69 143.121 2866.78 143.688C2866.88 144.254 2866.96 144.811 2867.06 145.375C2867.28 146.538 2867.52 147.627 2867.78 148.781C2871.99 167.392 2881.27 184.336 2885.81 202.844C2887.28 208.833 2887.92 214.974 2888.56 221.094C2889.59 230.81 2890.22 240.553 2890.66 250.312C2891.97 279.761 2891.23 309.294 2890.56 338.75C2889.42 388.776 2885.64 438.675 2882.88 488.625C2881.73 509.3 2880.77 529.996 2879.91 550.688C2871.31 558.943 2862.63 567.103 2853.72 575.031C2836.64 590.225 2818.97 604.682 2800.91 618.688C2778.3 636.221 2755.2 653.208 2731.31 668.969C2721.63 675.354 2711.86 681.707 2701.81 687.5C2698.45 689.44 2695.02 691.244 2691.62 693.125C2688.99 694.584 2686.39 696.141 2683.72 697.531C2680.28 699.323 2676.71 700.923 2673.22 702.625C2645.53 716.132 2616.77 727.44 2590.03 742.844C2568.98 754.97 2548.87 768.706 2529.16 782.875C2522.07 787.965 2515.06 793.17 2508.06 798.375C2503.17 802.013 2498.31 805.704 2493.31 809.188C2478.37 819.592 2462.36 828.463 2448.22 840C2439.15 847.402 2430.68 856.02 2425 866.344C2423.84 868.442 2423.86 870.659 2424.97 872.812C2425.46 873.765 2425.97 874.726 2426.59 875.594C2427.96 877.476 2429.35 879.338 2430.94 881.031C2434.61 884.939 2438.35 888.835 2442.38 892.375C2448.59 897.842 2455.03 903.026 2461.62 908.031C2464.54 910.247 2467.65 912.207 2470.72 914.219C2470.95 915.155 2471.29 916.062 2471.5 917C2475.69 935.733 2475.01 955.244 2471.75 974.062C2471.03 978.214 2470.17 982.334 2469.22 986.438C2460.27 990.613 2451.33 994.8 2442.44 999.094C2433.91 1003.21 2425.42 1007.35 2417.03 1011.75C2389.44 1026.23 2362.94 1042.63 2335.94 1058.16C2313.9 1070.83 2291.45 1082.81 2269 1094.72C2259.95 1099.52 2250.86 1104.28 2241.75 1108.97C2236.56 1111.64 2231.4 1114.44 2226.09 1116.88C2218.59 1120.32 2210.77 1123.02 2203.12 1126.12C2203.97 1109.65 2204.79 1093.19 2205.59 1076.72C2207.43 1039.29 2208.58 1001.81 2210.38 964.375C2211.86 933.263 2213.92 902.165 2217.22 871.188C2217.91 864.641 2218.7 858.111 2219.38 851.562C2220.16 843.961 2221.07 836.09 2224.59 829.188C2228.34 821.852 2235.35 816.99 2240.97 811.219C2242.28 809.876 2243.52 808.489 2244.66 807C2245.87 805.416 2246.89 803.679 2248.06 802.062C2250.13 799.2 2252.42 796.499 2254.59 793.719C2259.26 787.752 2265.16 780.046 2263.03 771.938C2262.57 770.187 2261.8 768.488 2260.88 766.938C2260.42 766.177 2260 765.401 2259.47 764.688C2258.35 763.178 2257.24 761.662 2255.97 760.281C2252.85 756.889 2249.73 753.43 2246.28 750.375C2239.25 744.149 2232.06 738.091 2224.53 732.469C2218.7 728.11 2212.47 724.259 2206.25 720.469C2204.05 719.131 2201.69 718.138 2199.34 717.094C2199.14 717.004 2198.92 716.954 2198.72 716.875C2203.6 711.815 2207.74 706.032 2211.16 699.906C2216.95 689.512 2220.89 678.097 2223.19 666.438C2224.34 660.613 2224.97 654.72 2225.5 648.812C2226.26 640.434 2226.57 632.004 2226.59 623.594C2226.65 605.997 2225.34 588.445 2223.69 570.938C2222.54 558.803 2221.44 546.61 2219 534.656C2216.75 523.659 2213.75 512.837 2210.62 502.062C2208.47 494.626 2206.16 487.225 2204.25 479.719C2200.87 466.423 2198.6 452.844 2194.78 439.656C2191.09 426.909 2185.88 414.548 2177.97 403.812C2172.1 395.856 2164.88 388.876 2157.53 382.312C2152.29 377.63 2146.86 373.16 2141.31 368.844C2136.88 365.394 2132.33 362.104 2127.69 358.938C2114.13 349.686 2099.5 341.569 2083.31 338.125C2080.3 337.484 2077.28 337.002 2074.22 336.688C2072.28 336.489 2070.32 336.383 2068.41 336.812C2064.08 337.781 2060.57 340.4 2057.28 343.25C2053.74 346.318 2050.47 349.656 2046.53 352.219C2044.15 355.184 2056.96 369.451 2075.16 384.062C2093.35 398.674 2110.02 408.121 2112.41 405.156C2116.45 402.526 2119.81 399.082 2123.44 395.938C2125 394.581 2126.67 393.332 2128.44 392.25C2128.47 392.354 2128.5 392.458 2128.53 392.562C2132.35 406.254 2134.69 420.306 2138.38 434.031C2142.96 451.114 2148.58 467.897 2152.12 485.25C2153.65 492.719 2154.55 500.272 2155.38 507.844C2156 513.629 2156.58 519.395 2157.12 525.188C2159.27 547.854 2160.55 570.788 2158.88 593.531C2158.34 600.76 2157.65 608.006 2156.25 615.125C2153.77 627.722 2149.32 640.019 2142.62 651C2140.07 655.187 2137.23 659.231 2133.94 662.875C2130.37 666.823 2126.32 670.33 2122.03 673.469C2113.87 679.443 2104.87 684.172 2095.94 688.875C2089.48 692.276 2083.11 695.817 2076.47 698.844C2065.68 703.76 2054.48 707.731 2043.34 711.781C2036.71 714.195 2030.13 716.704 2023.47 719.031C2014.29 722.235 2005.01 725.177 1995.72 728.031C1975.21 734.334 1954.55 740.122 1934.09 746.625C1930.37 747.809 1926.61 748.934 1922.91 750.188C1919.21 751.44 1915.58 752.834 1911.91 754.156C1908.23 755.477 1904.53 756.75 1900.88 758.125C1881.8 765.307 1864.09 775.91 1847.22 787.219C1831.85 797.515 1817.05 808.62 1801.88 819.188C1794.56 824.28 1787.16 829.21 1779.62 833.969C1758.34 847.415 1736.76 860.793 1713.25 870.062C1710.92 870.981 1708.6 872.051 1706.12 872.531C1703.53 873.035 1700.88 873.163 1698.25 873.281C1694.16 873.464 1690.05 873.431 1685.97 873.781C1685.47 873.824 1684.96 873.882 1684.47 873.938C1682.24 874.186 1678.02 874.758 1678.44 877.906C1678.49 878.317 1678.58 878.735 1678.72 879.125C1679.26 880.656 1680.23 882.259 1681.16 883.531C1682.26 885.043 1683.42 886.534 1684.66 887.938C1686.55 890.082 1688.52 892.154 1690.56 894.156C1693.43 896.968 1696.33 899.752 1699.38 902.375C1703.66 906.071 1708.05 909.67 1712.53 913.125C1716.51 916.194 1720.6 919.103 1724.75 921.938C1727.56 923.856 1730.49 925.631 1733.41 927.375C1736.28 929.094 1739.25 930.628 1742.31 931.969C1746.03 933.594 1749.96 934.602 1754.03 934.344C1759.05 934.025 1763.84 932.215 1768.56 930.625C1772.01 929.465 1775.38 928.534 1778.94 927.781C1794.74 924.437 1810.28 920.065 1825.81 915.656C1839.31 911.825 1852.81 908.01 1866.28 904.094C1900.12 894.256 1933.81 884.022 1967.47 873.594C1980.8 869.462 1994.12 865.293 2007.44 861.094C2015.36 858.596 2023.31 856.114 2031.19 853.5C2050.63 847.054 2069.84 840.025 2089.03 832.875C2109.78 825.142 2130.53 817.389 2151.41 810C2151.02 813.393 2150.61 816.792 2150.25 820.188C2148.09 840.531 2146.46 860.926 2145.19 881.344C2143.13 914.292 2141.92 947.297 2140.59 980.281C2139.7 1002.55 2138.68 1024.8 2137.53 1047.06C2136.34 1070.09 2135.09 1093.12 2134.12 1116.16C2133.26 1136.7 2132.6 1157.25 2132.62 1177.81C2132.67 1225.31 2135.14 1273.03 2129.31 1320.31C2123.41 1368.2 2109.02 1414.45 2099 1461.53C2095.81 1476.54 2092.97 1491.61 2091.06 1506.84C2090.13 1514.33 2089.29 1521.86 2089 1529.41C2088.63 1539.26 2089.19 1549.18 2091.03 1558.88C2092.01 1564.03 2093.25 1569.07 2095.59 1573.78C2097.35 1577.31 2099.48 1580.62 2101.69 1583.88C2103.43 1586.44 2105.26 1588.95 2106.84 1591.62C2107.95 1593.5 2108.83 1595.48 2109.78 1597.44C2110.54 1599.01 2111.31 1600.57 2112.09 1602.12C2114.35 1606.59 2116.78 1611.21 2117.38 1616.25C2117.63 1618.41 2117.59 1620.67 2116.91 1622.75C2115.96 1625.63 2114.03 1628.09 2112.09 1630.38C2109.63 1633.28 2106.92 1636.01 2104.81 1639.19C2103.09 1641.79 2101.83 1644.62 2101.84 1647.78C2101.86 1651.22 2102.93 1654.72 2104.19 1657.88C2107.23 1665.53 2112.35 1672.12 2117.97 1678.06C2119.83 1680.03 2121.72 1681.95 2123.69 1683.81C2126.44 1686.42 2129.23 1688.99 2132.09 1691.47C2134.86 1693.87 2137.69 1696.2 2140.56 1698.47C2146.31 1703.03 2151.95 1707.14 2158.06 1711.19C2162.05 1713.83 2165.87 1716.14 2170.06 1718.34C2172.67 1719.71 2175.37 1720.98 2178.19 1721.84C2180.26 1722.48 2182.5 1722.87 2184.66 1722.47C2186.21 1722.18 2187.61 1721.41 2188.97 1720.66C2191.45 1719.28 2193.76 1717.61 2195.88 1715.72C2206.05 1706.64 2211.73 1693.38 2217.97 1681.53C2220.44 1676.84 2223.16 1672.28 2225.75 1667.66C2229.97 1660.13 2234.01 1652.53 2237.94 1644.84C2247.09 1626.93 2255.62 1608.69 2264.34 1590.56C2275.79 1566.78 2287.52 1543.13 2299.09 1519.41C2309.68 1497.72 2320.05 1475.92 2330.09 1453.97C2336.52 1439.92 2342.96 1425.83 2348.53 1411.41C2361.25 1378.46 2370.09 1344.02 2385.19 1312C2385.78 1310.75 2386.42 1309.52 2387.03 1308.28C2395.08 1314.73 2403.41 1320.82 2411.88 1326.72C2415.01 1328.9 2418.51 1330.48 2421.91 1332.22C2422.99 1332.77 2424.14 1333.18 2425.28 1333.59C2425.82 1333.79 2426.38 1333.92 2426.94 1334.06C2428.93 1334.57 2430.95 1334.42 2432.97 1334.22C2434.64 1334.05 2436.31 1333.83 2437.97 1333.53C2444.45 1332.38 2450.73 1330.28 2456.78 1327.72C2466.95 1323.41 2476.46 1317.76 2486.09 1312.41C2491.8 1309.23 2497.55 1306.2 2503.47 1303.44C2514.21 1298.43 2525.08 1293.64 2535.84 1288.69C2558.36 1278.34 2580.82 1267.91 2603.44 1257.78C2624.07 1248.54 2644.8 1239.53 2665.75 1231.03C2676.88 1226.52 2688.06 1222.02 2699.38 1218C2708.16 1214.88 2717.05 1212.1 2726.09 1209.81C2736.17 1207.26 2746.4 1205.2 2756.56 1203C2778.15 1198.32 2799.8 1193.94 2821.47 1189.66C2857.62 1182.52 2893.8 1175.57 2930.16 1169.56C2949.8 1166.32 2969.47 1163.15 2989.09 1159.78C2998.44 1158.18 3007.87 1156.89 3017.12 1154.81C3021.49 1153.83 3025.74 1152.54 3030.03 1151.28C3034.02 1150.11 3038.03 1148.97 3042.03 1147.84C3043.61 1147.4 3045.2 1146.95 3046.78 1146.5C3047.15 1148.57 3047.59 1150.64 3047.94 1152.72C3055.94 1200.8 3060.05 1249.41 3064.31 1297.94C3067.08 1329.4 3069.9 1360.88 3073.88 1392.22C3076.58 1413.54 3079.91 1434.74 3083.81 1455.88C3089.98 1489.31 3097.37 1522.5 3104.44 1555.75C3105.95 1562.89 3107.54 1570.04 3109 1577.19C3110.29 1583.49 3111.48 1589.78 3112.72 1596.09C3114.12 1603.23 3115.65 1610.37 3116.94 1617.53C3118 1623.42 3118.88 1629.34 3119.84 1635.25C3120.68 1640.33 3121.51 1645.42 3122.34 1650.5C3122.85 1653.62 3123.42 1656.71 3123.84 1659.84C3126.07 1676.28 3126.54 1692.93 3126.72 1709.5C3126.88 1725.19 3126.78 1740.91 3126.62 1756.59C3126.52 1767.39 3125.93 1778.2 3126.28 1789C3126.5 1795.73 3127.12 1802.45 3128 1809.12C3130.24 1826.12 3134.19 1842.79 3137.78 1859.53C3139.79 1868.9 3141.78 1878.36 3142.97 1887.88C3145.13 1905.16 3144.36 1922.63 3142.84 1939.94C3142.49 1944.04 3141.93 1948.09 3142.09 1952.22C3142.15 1953.64 3142.26 1955.05 3142.38 1956.47C3142.95 1963.45 3144.41 1972.62 3138.28 1977.69C3137.62 1978.23 3136.89 1978.7 3136.12 1979.09C3131.23 1981.64 3125.21 1981.25 3119.94 1980.44C3116.07 1979.84 3112.24 1978.99 3108.59 1977.56C3104.29 1975.88 3100.27 1973.53 3096.22 1971.34C3091.88 1969 3087.52 1966.68 3083.06 1964.56C3078.58 1962.43 3073.98 1960.51 3069.41 1958.56C3049.68 1950.15 3029.71 1942.36 3010.03 1933.84C2988.46 1924.5 2966.91 1914.42 2943.84 1909.31C2939.13 1908.27 2934.37 1907.49 2929.56 1907.03C2919.41 1906.05 2909.2 1906.06 2899.03 1905.38C2896.63 1908.19 2908.68 1922.43 2925.97 1937.19C2943.26 1951.94 2959.22 1961.63 2961.62 1958.81C2975.78 1959.77 2990.11 1959.29 3004.03 1962.38C3019.91 1965.89 3034.96 1972.24 3049.81 1978.72C3059.59 1982.98 3069.36 1987.2 3079.22 1991.28C3091.06 1996.18 3102.93 2001.05 3114.75 2006C3122.35 2009.19 3130.05 2012.21 3137.31 2016.12C3146.48 2021.07 3155.64 2026.17 3165.47 2029.72C3171.51 2031.9 3177.83 2033.4 3184.22 2034.12C3190.88 2034.88 3198.85 2034.89 3204.31 2030.38C3212.03 2023.99 3209.62 2012.58 3209.09 2003.88C3208.75 1998.15 3209.63 1992.48 3210.09 1986.78C3210.64 1980 3211.05 1973.18 3211.19 1966.38C3211.39 1955.9 3210.99 1945.41 3209.5 1935.03C3208.5 1928.05 3207.11 1921.12 3205.69 1914.22C3202.02 1896.43 3197.63 1878.76 3195.12 1860.75C3194.14 1853.67 3193.45 1846.52 3193.22 1839.38C3192.91 1829.84 3193.36 1820.31 3193.53 1810.78C3193.63 1805.26 3193.6 1799.74 3193.62 1794.22C3193.67 1785.22 3193.74 1776.25 3193.72 1767.25C3193.68 1749.95 3193.32 1732.58 3191.41 1715.38C3190.46 1706.86 3188.92 1698.42 3187.53 1689.97C3186.28 1682.33 3185.15 1674.68 3183.78 1667.06C3182.1 1657.75 3180.11 1648.47 3178.28 1639.19C3167.83 1586.09 3154.95 1533.47 3146.25 1480.03C3134.97 1410.76 3131.54 1340.58 3123.97 1270.88C3121.48 1247.96 3118.56 1225.09 3114.78 1202.34C3112.61 1189.28 3109.97 1176.31 3107.44 1163.31C3105.73 1154.54 3103.74 1145.82 3101.81 1137.09C3101.14 1134.02 3100.38 1130.97 3099.69 1127.91C3102.55 1126.53 3105.47 1125.3 3108.25 1123.75C3118.1 1118.26 3127.22 1111.45 3135.47 1103.78C3140.22 1099.36 3144.71 1094.62 3148.91 1089.66C3151.91 1086.1 3154.85 1082.55 3156.75 1078.25C3160.87 1068.91 3161.03 1057.77 3157.34 1048.28C3154.09 1039.91 3148.57 1032.59 3143.16 1025.5C3139.01 1020.06 3134.79 1014.72 3130.22 1009.62C3123.65 1002.3 3116.61 995.449 3109.84 988.312C3104.9 983.094 3100.21 977.601 3095.41 972.25C3090.14 966.379 3084.86 960.506 3079.78 954.469C3078.04 952.405 3076.34 950.323 3074.66 948.219C3074.02 947.427 3073.38 946.639 3072.75 945.844C3071.51 943.765 3070.52 941.538 3069.5 939.344C3067.29 934.558 3065.32 929.613 3062.75 925C3061.28 922.361 3059.53 919.831 3057.53 917.562C3056.07 915.897 3054.59 914.234 3053.03 912.656C3084.43 894.279 3115.84 875.94 3147.38 857.812C3160.71 850.146 3174.07 842.537 3187.47 834.969C3194.44 831.029 3201.39 826.987 3208.44 823.188C3223.97 814.816 3240.06 807.525 3255.59 799.156C3260.78 796.362 3265.92 793.435 3270.94 790.344C3274.26 788.3 3277.46 786.121 3280.81 784.125C3287.63 780.058 3294.64 776.347 3301.41 772.188C3305.01 769.97 3308.6 767.634 3311.88 764.938C3314.86 762.474 3318.97 758.834 3318.03 754.469C3317.83 753.51 3317.43 752.583 3316.97 751.719C3315.5 748.947 3313.45 746.376 3311.38 744.062C3309.57 742.053 3307.75 740.069 3305.81 738.188C3302.78 735.244 3299.67 732.349 3296.47 729.594C3292.41 726.099 3288.24 722.713 3284 719.438C3280.53 716.761 3276.98 714.242 3273.38 711.75C3270.93 710.057 3268.4 708.475 3265.88 706.906C3262.89 705.052 3259.98 703.449 3256.84 701.906C3251.76 699.406 3246.33 697.434 3240.66 696.875C3232.81 696.102 3225.03 698.155 3217.78 701C3208.74 704.55 3200.3 709.366 3191.53 713.5C3188.76 714.805 3185.96 716.065 3183.09 717.156C3177.47 719.302 3171.69 721.076 3166 723.062C3154.86 726.955 3143.77 730.992 3132.72 735.125C3072.78 757.538 3013.95 782.899 2953.62 804.281C2949.86 805.615 2946.08 806.895 2942.31 808.219C2942.63 792.906 2942.3 777.579 2942.06 762.281C2941.97 756.034 2941.88 749.779 2941.94 743.531C2942 735.911 2942.33 728.304 2942.56 720.688C2942.9 709.727 2943.2 698.742 2943.53 687.781C2944.35 660.678 2945.55 633.59 2946.72 606.5C2946.78 605.146 2946.85 603.792 2946.91 602.438C2952.21 597.326 2957.59 592.287 2962.81 587.094C2971.03 578.924 2979.2 570.74 2987.16 562.312C2998.45 550.35 3009.49 538.167 3019.53 525.125C3024.34 518.882 3029.1 512.502 3033.12 505.719C3037.91 497.664 3041.71 489.072 3045 480.312C3049.16 469.235 3052.3 457.844 3056.12 446.656C3059.69 436.214 3063.91 424.849 3061.38 413.688C3059.62 405.984 3054.8 399.098 3049.88 393.094C3041.89 383.367 3032.52 374.803 3022.94 366.688C3018.82 363.201 3014.59 359.826 3010.34 356.5C3009.53 355.171 3008.72 353.82 3008 352.438C3005.53 347.716 3003.53 342.738 3001.75 337.719C3000.08 332.995 2998.81 328.197 2997.84 323.281C2996.3 315.414 2995.41 307.438 2993.59 299.625C2993.02 297.17 2992.3 294.701 2991.59 292.281C2989.85 286.325 2987.62 280.465 2985.38 274.688C2981.49 264.699 2977.19 254.883 2972.62 245.188C2967.46 234.228 2961.91 223.391 2955.78 212.938C2953.13 208.41 2950.3 204.041 2947.47 199.625C2942.6 192.035 2937.71 184.374 2931.81 177.531C2928.08 173.203 2924.06 169.074 2919.81 165.25C2916.82 162.558 2913.83 159.886 2910.72 157.344C2906.43 153.846 2902.08 150.397 2897.59 147.156C2893.21 143.989 2888.73 140.962 2884.12 138.125C2881.2 136.324 2878.15 134.742 2875.06 133.25C2873.68 132.58 2872.19 132.097 2870.72 131.656C2870.02 131.447 2869.29 131.357 2868.56 131.312ZM2958.22 328.812C2961.99 333.01 2965.92 337.084 2970.03 340.938C2977.44 347.88 2985.24 354.379 2993.22 360.656C2993.33 360.891 2993.46 361.106 2993.56 361.344C2994.63 363.781 2995.07 366.483 2995.16 369.125C2995.43 377.37 2992.56 385.496 2989.94 393.188C2984.36 409.54 2979.96 426.29 2972.62 442C2970.41 446.752 2967.97 451.395 2965.19 455.844C2962.69 459.835 2959.89 463.656 2957.09 467.438C2956.06 468.84 2954.9 470.146 2953.84 471.531C2954.77 455.724 2955.66 439.914 2956.34 424.094C2957.12 406.127 2957.56 388.135 2957.91 370.156C2958.18 356.378 2958.31 342.594 2958.22 328.812ZM2875.75 664.5C2875.48 672.738 2875.17 680.978 2875.03 689.219C2874.88 698.011 2875.01 706.802 2875.16 715.594C2875.28 722.699 2875.41 729.831 2875.5 736.938C2875.92 770.237 2874.49 805.622 2860.72 836.281C2809.21 853.721 2757.64 870.966 2706.44 889.281C2679.9 898.776 2653.47 908.549 2627.22 918.812C2610.83 925.221 2594.53 931.868 2578.25 938.562C2564.02 944.413 2549.87 950.49 2535.75 956.594C2533.63 949.678 2530.88 942.981 2527.06 936.844C2524.43 932.614 2521.39 928.636 2518.09 924.906C2516.99 923.658 2515.9 922.4 2514.72 921.219C2511.72 918.212 2508.76 915.166 2505.59 912.344C2503.63 910.599 2501.57 908.976 2499.56 907.281C2502.71 903.503 2506.08 899.9 2509.75 896.625C2524.82 883.163 2542.71 873.528 2559.22 862.031C2564.24 858.532 2569.15 854.81 2574.06 851.156C2581.05 845.959 2588.02 840.8 2595.09 835.719C2614.74 821.602 2634.81 807.926 2655.78 795.844C2682.46 780.474 2711.16 769.165 2738.78 755.688C2742.29 753.974 2745.88 752.366 2749.34 750.562C2752.42 748.961 2755.43 747.181 2758.47 745.5C2761.5 743.821 2764.56 742.201 2767.56 740.469C2773 737.332 2778.31 733.943 2783.62 730.594C2792.73 724.854 2801.69 718.935 2810.56 712.844C2824.98 702.947 2839.11 692.625 2853.06 682.094C2860.7 676.328 2868.23 670.421 2875.75 664.5ZM2951.38 880.812C2941.86 886.399 2932.34 891.998 2922.84 897.625C2924.4 894.831 2925.8 891.959 2927.12 889.062C2935.21 886.321 2943.3 883.57 2951.38 880.812ZM3002.59 942.312C3003.08 944.878 3003.6 947.437 3004.09 950C3005.18 955.645 3006.33 961.277 3007.5 966.906C3011.03 983.929 3014.89 1000.88 3018.84 1017.81C3023.36 1037.14 3027.86 1056.48 3032.25 1075.84C3018.41 1082.25 3003.74 1086.93 2989.12 1091.16C2981.69 1093.31 2974.22 1095.37 2966.78 1097.53C2962.01 1098.92 2957.29 1100.41 2952.44 1101.5C2945.61 1103.04 2938.65 1104.02 2931.75 1105.19C2919.94 1107.18 2908.16 1109.24 2896.34 1111.19C2877.07 1114.37 2857.77 1117.42 2838.53 1120.81C2825.59 1123.09 2812.69 1125.57 2799.78 1128.03C2778.06 1132.17 2756.33 1136.38 2734.66 1140.75C2719.32 1143.84 2704.01 1147.06 2688.72 1150.38C2678.4 1152.61 2668.04 1154.68 2657.84 1157.41C2647.58 1160.15 2637.47 1163.51 2627.53 1167.25C2625.38 1168.06 2623.27 1168.93 2621.12 1169.75C2630.76 1163.28 2640.43 1156.86 2650.22 1150.62C2684.47 1128.82 2719.6 1108.4 2754.84 1088.25C2781.86 1072.81 2809 1057.59 2835.88 1041.91C2881.89 1015.05 2927.24 987.127 2972.97 959.781C2982.81 953.899 2992.72 948.131 3002.59 942.312ZM2821.84 958.219C2809.8 965.451 2797.77 972.73 2785.66 979.844C2713.61 1022.14 2639.68 1061.41 2569.72 1107.19C2551.62 1119.03 2533.73 1131.27 2516.38 1144.19C2500.74 1155.83 2485.54 1168.03 2470.69 1180.66C2470.5 1180.81 2470.31 1180.97 2470.12 1181.12C2479.56 1167.38 2489.18 1153.75 2497.59 1139.34C2502.29 1131.29 2506.55 1123.01 2510.28 1114.47C2517.04 1098.99 2522.27 1082.91 2527.62 1066.91C2528.22 1065.12 2528.79 1063.32 2529.38 1061.53C2536.98 1057.7 2544.63 1053.95 2552.22 1050.09C2584.31 1033.79 2616.42 1017.42 2649.44 1003.06C2660.9 998.076 2672.49 993.361 2684.19 988.938C2692.17 985.918 2700.21 983.025 2708.38 980.531C2723.7 975.852 2739.37 972.507 2755.06 969.375C2765.07 967.377 2775.09 965.3 2785.16 963.594C2797.34 961.529 2809.62 960.045 2821.84 958.219ZM3063.62 965.969C3065.26 967.658 3066.89 969.378 3068.53 971.062C3071.27 973.866 3074.01 976.643 3076.59 979.594C3078.7 982.006 3080.62 984.58 3082.56 987.125C3085.6 991.097 3088.71 995.124 3090.69 999.75C3093.35 1005.98 3093.61 1013.1 3092.22 1019.69C3091.65 1022.37 3090.76 1025 3089.56 1027.47C3087.79 1031.11 3085.13 1034.18 3082.53 1037.25C3081.63 1038.31 3080.61 1039.27 3079.69 1040.31C3077.9 1032.29 3075.98 1024.3 3074.31 1016.25C3072.57 1007.83 3070.96 999.348 3069.31 990.906C3067.98 984.082 3066.34 977.346 3064.69 970.594C3064.31 969.059 3063.99 967.508 3063.62 965.969ZM2413.28 1114.84C2407.18 1123.81 2400.95 1132.71 2394.94 1141.72C2391.2 1147.32 2387.46 1152.92 2383.69 1158.5C2372.65 1174.82 2361.32 1190.94 2350.31 1207.28C2345.56 1214.34 2340.85 1221.41 2336.25 1228.56C2331.41 1236.1 2326.71 1243.72 2322.59 1251.69C2303.44 1288.78 2294.18 1329.84 2278.31 1368.28C2275.91 1374.09 2273.36 1379.85 2270.81 1385.59C2265.45 1397.72 2259.86 1409.74 2254.25 1421.75C2234.85 1463.24 2214.17 1504.11 2194.38 1545.41C2185.54 1563.85 2176.82 1582.36 2167.31 1600.47C2164.75 1605.35 2162.13 1610.19 2159.44 1615C2158.98 1613.37 2158.59 1611.72 2158.25 1610.06C2157.54 1606.63 2157 1603.17 2156.62 1599.69C2155.27 1587.19 2156.07 1574.7 2157.5 1562.25C2158.86 1550.35 2160.79 1538.54 2163.03 1526.78C2171.3 1483.33 2184.41 1440.94 2192.28 1397.41C2196.17 1375.91 2198.48 1354.23 2199.44 1332.41C2201.27 1290.83 2198.99 1249.21 2199.75 1207.62C2200.01 1193.58 2200.57 1179.54 2201.16 1165.5C2201.19 1164.66 2201.24 1163.81 2201.28 1162.97C2201.68 1163.31 2202.04 1163.69 2202.44 1164.03C2208.1 1168.8 2213.96 1173.32 2219.94 1177.69C2223.81 1180.51 2227.9 1183.02 2231.94 1185.59C2233.08 1186.32 2234.29 1186.95 2235.47 1187.62C2235.49 1187.63 2235.51 1187.65 2235.53 1187.66C2238.87 1189.01 2242.19 1190.4 2245.56 1191.69C2245.83 1191.79 2246.8 1191.74 2247.06 1191.72C2248.85 1191.55 2250.64 1190.77 2252.31 1190.16C2254.95 1189.18 2257.56 1188.11 2260.16 1187.03C2268.19 1183.7 2276.16 1180.18 2284.19 1176.84C2316.56 1163.39 2347.45 1146.85 2378.81 1131.25C2390.04 1125.67 2401.35 1120.22 2412.78 1115.06C2412.95 1114.99 2413.12 1114.92 2413.28 1114.84Z" fill="#000000" stroke="none"/>
</g>
<g opacity="1">
<path d="M2716.59 1346C2714.19 1348.81 2726.19 1363.05 2743.41 1377.81C2760.62 1392.57 2776.53 1402.24 2778.94 1399.44C2783.16 1399.83 2787.36 1399.8 2791.59 1399.75C2792.51 1399.74 2793.45 1399.78 2794.38 1399.78C2801.21 1408.68 2807.27 1418.17 2813.44 1427.53C2819.43 1436.63 2825.57 1445.61 2832.38 1454.12C2838.7 1462.04 2845.67 1469.65 2850.81 1478.44C2855.13 1485.82 2858.14 1493.9 2860.97 1501.94C2863.41 1508.88 2865.77 1515.82 2868.41 1522.69C2866.26 1525.67 2879.35 1538.75 2897.66 1551.91C2915.96 1565.06 2932.54 1573.33 2934.69 1570.34C2928.55 1554.33 2924.12 1537.52 2915.41 1522.62C2906.56 1507.51 2894.15 1495.03 2884.19 1480.72C2873.68 1465.61 2864.28 1449.76 2852.88 1435.28C2849.01 1430.38 2844.9 1425.66 2840.75 1421C2825.92 1404.35 2809.55 1389.21 2791.81 1375.69C2782.92 1368.91 2773.7 1362.5 2764.06 1356.81C2758.63 1353.6 2753.07 1350.47 2747.06 1348.47C2743.25 1347.2 2739.26 1346.57 2735.25 1346.34C2729.03 1346 2722.8 1346.59 2716.59 1346Z" fill="#000000" stroke="none"/>
</g>
<g opacity="1">
<path d="M3996.78 204.031C3996.02 204.162 3995.3 204.488 3994.69 205.031C3993.51 206.081 3992.77 207.687 3992.28 209.156C3990.83 213.5 3991.92 218.138 3993.59 222.25C3996.66 229.783 4001.88 236.148 4005.34 243.469C4006.69 246.324 4007.27 249.468 4007.94 252.531C4008.6 255.546 4009.19 258.586 4009.72 261.625C4011.46 271.549 4012.8 281.533 4014.66 291.438C4015.98 298.502 4017.43 305.547 4018.84 312.594C4021.2 324.324 4023.59 336.036 4026.03 347.75C4032.79 380.222 4039.9 412.648 4047.75 444.875C4059.4 492.703 4072.65 540.111 4086.72 587.281C4101.27 636.074 4116.55 684.641 4131.41 733.344C4053.89 757.66 3976.69 782.996 3900.91 812.312C3895.43 814.432 3889.96 816.584 3884.5 818.75C3880.67 820.268 3876.82 821.742 3873.06 823.438C3865.23 826.973 3857.73 831.194 3850 834.938C3843.32 838.17 3836.47 841.041 3829.69 844.031C3793.31 860.065 3756.87 875.992 3719.88 890.562C3702.66 897.341 3685.33 903.79 3667.88 909.906C3665.48 912.841 3678.12 927.112 3696.12 941.812C3714.13 956.513 3730.7 966.06 3733.09 963.125C3750.59 956.993 3767.97 950.545 3785.22 943.75C3822.26 929.163 3858.74 913.208 3895.16 897.156C3901.98 894.151 3908.85 891.28 3915.56 888.031C3923.27 884.3 3930.76 880.086 3938.56 876.562C3944.64 873.817 3950.91 871.5 3957.12 869.062C3967.44 865.015 3977.79 861.056 3988.16 857.156C4042.06 836.88 4096.64 818.502 4151.47 800.875C4153.53 808.005 4155.67 815.105 4157.69 822.25C4161.65 836.295 4165.49 850.383 4168.94 864.562C4174.19 886.183 4178.87 907.911 4184 929.562C4186.68 940.886 4189.54 952.182 4192.25 963.5C4196.3 980.437 4200.31 997.389 4204.91 1014.19C4203.49 1015.15 4202.07 1016.1 4200.66 1017.06C4167.54 1039.46 4134.43 1061.89 4101.72 1084.88C4086.37 1095.65 4071.08 1106.51 4056 1117.66C4032.91 1134.72 4010.38 1152.51 3987.59 1169.97C3971.57 1182.25 3955.39 1194.33 3938.97 1206.06C3919.62 1219.89 3900.06 1233.4 3880.41 1246.78C3868.24 1252.54 3856.11 1258.34 3843.94 1264.09C3771.05 1298.53 3698.32 1333.4 3627.22 1371.41C3597.52 1387.28 3568.05 1403.65 3539.09 1420.84C3525.74 1428.78 3512.46 1436.81 3499.28 1445.03C3489.33 1451.24 3479.45 1457.58 3469.53 1463.84C3450.34 1475.97 3431.08 1488.02 3412.53 1501.12C3408.55 1503.94 3404.7 1506.97 3400.62 1509.66C3398.99 1510.74 3397.27 1511.73 3395.59 1512.75C3394.26 1513.56 3392.91 1514.37 3391.59 1515.22C3386.28 1518.63 3379.4 1523.51 3380.62 1530.78C3380.79 1531.79 3381.06 1532.81 3381.47 1533.75C3381.7 1534.28 3381.93 1534.81 3382.22 1535.31C3382.77 1536.26 3383.32 1537.2 3384 1538.06C3386.04 1540.63 3387.97 1543.34 3390.38 1545.56C3398.96 1553.5 3407.62 1561.4 3416.91 1568.5C3423.86 1573.82 3431.48 1578.24 3439 1582.72C3440.92 1583.86 3443.09 1584.57 3445.19 1585.34C3445.93 1585.62 3446.72 1585.74 3447.5 1585.88C3447.89 1585.94 3448.26 1585.94 3448.66 1585.94C3451.56 1585.93 3454.15 1583.66 3456.19 1581.88C3459.99 1578.54 3463.38 1574.7 3467.44 1571.66C3468.43 1570.91 3469.46 1570.2 3470.59 1569.69C3472.56 1568.8 3474.74 1568.26 3476.78 1567.56C3482.51 1565.6 3488.35 1564.08 3494.22 1562.59C3504.54 1559.98 3514.97 1557.53 3524.94 1553.72C3534.45 1550.08 3543.69 1545.64 3552.78 1541.06C3567.66 1533.58 3582.21 1525.48 3597.06 1517.94C3622.78 1504.88 3648.9 1492.59 3674.06 1478.47C3695.12 1466.65 3715.36 1453.38 3735.41 1439.94C3752.6 1428.41 3769.6 1416.65 3786.88 1405.25C3835.18 1373.37 3883.74 1341.86 3931.72 1309.5C3911.79 1331.03 3892.05 1352.78 3873.19 1375.25C3821.88 1436.36 3775.81 1501.54 3728.53 1565.75C3717.6 1580.59 3706.58 1595.34 3695.38 1609.97C3679.69 1630.45 3663.77 1650.77 3648.31 1671.44C3640.24 1682.23 3632.28 1693.14 3624.47 1704.12C3613.87 1719.04 3603.44 1734.06 3592.75 1748.91C3589.41 1753.54 3586.05 1758.13 3582.69 1762.75C3580.45 1765.82 3578.1 1768.84 3575.81 1771.88C3570.56 1778.82 3565.2 1785.63 3559.5 1792.22C3549.19 1804.14 3538.31 1815.57 3528.19 1827.66C3525.06 1831.39 3522.01 1835.2 3519.09 1839.09C3516.57 1842.46 3514.26 1845.98 3511.66 1849.28C3505.93 1856.55 3499.32 1863.39 3495 1871.66C3492.28 1876.85 3490.73 1882.62 3492.28 1888.44C3493.43 1892.73 3495.9 1896.46 3498.75 1899.81C3499.88 1901.15 3501.04 1902.49 3502.25 1903.75C3504.38 1905.97 3506.51 1908.17 3508.78 1910.25C3512.66 1913.8 3516.6 1917.31 3520.69 1920.62C3525.23 1924.31 3529.9 1927.84 3534.66 1931.25C3538.19 1933.78 3541.84 1936.15 3545.53 1938.44C3547.71 1939.79 3549.97 1941.02 3552.25 1942.19C3553.77 1942.97 3555.32 1943.64 3556.91 1944.28C3559.88 1945.48 3563.03 1946.02 3566.03 1944.72C3569.18 1943.35 3571.82 1940.82 3574.22 1938.44C3577.99 1934.68 3581.41 1930.61 3584.97 1926.66C3586.76 1924.67 3588.56 1922.69 3590.53 1920.88C3592.27 1919.27 3594.15 1917.78 3595.97 1916.25C3598.76 1913.9 3601.54 1911.51 3604.28 1909.09C3642.77 1875.21 3677.65 1837.6 3713.69 1801.19C3739.08 1775.53 3765.84 1751.26 3791.38 1725.75C3807.4 1709.74 3822.95 1693.22 3838.28 1676.53C3856.64 1656.55 3874.53 1636.15 3891.72 1615.16C3904.65 1599.36 3916.96 1583.09 3929.56 1567.03C3947.73 1543.88 3966.05 1520.83 3983.75 1497.31C3992.61 1485.54 4001.35 1473.66 4009.66 1461.5C4014.95 1453.75 4020 1445.83 4024.94 1437.84C4027.43 1433.81 4029.84 1429.72 4032.28 1425.66C4031.24 1428.51 4030.11 1431.33 4029.09 1434.19C4024.36 1447.54 4019.8 1460.98 4015.19 1474.38C4003 1509.79 3991.69 1545.57 3985.72 1582.62C3982.62 1601.88 3980.91 1621.53 3982.78 1641C3983.13 1644.66 3983.63 1648.32 3984.25 1651.94C3984.97 1656.11 3985.77 1660.22 3987.38 1664.16C3990.44 1671.68 3995.4 1678.34 4000.62 1684.5C4007.04 1692.06 4014.15 1699.08 4021.28 1705.97C4021.33 1706.02 4021.34 1706.03 4021.38 1706.06C4021.5 1706.18 4021.62 1706.32 4021.75 1706.44C4033.91 1719.44 4046.56 1732.01 4059.72 1744C4081.92 1764.22 4105.53 1782.92 4130.06 1800.22C4143.22 1809.49 4156.7 1818.33 4170.59 1826.47C4182.33 1833.35 4194.4 1839.71 4206.56 1845.81C4225.66 1855.39 4245.24 1864.08 4265.47 1871C4292.97 1880.4 4321.56 1885.6 4350.12 1890.59C4379.44 1895.72 4408.81 1900.54 4438.5 1902.91C4448.82 1903.73 4459.12 1904.14 4469.47 1904.09C4483.96 1904.03 4498.45 1903.25 4512.94 1903.25C4522.51 1903.25 4532.07 1903.63 4541.62 1904.06C4577.32 1905.68 4612.97 1908.41 4648.66 1910.19C4653.85 1910.45 4659.05 1910.73 4664.25 1910.94C4673.49 1911.31 4682.73 1911.59 4691.97 1911.81C4704.35 1912.11 4716.75 1912.02 4729.12 1911.81C4763.45 1911.22 4797.72 1908.98 4831.91 1905.94C4866.16 1902.89 4900.41 1899.75 4934.72 1897.47C4950.04 1896.45 4965.43 1895.46 4980.78 1895.03C4986.85 1894.86 4992.9 1894.96 4998.97 1895.03C5001.02 1895.06 5003.07 1895.08 5005.12 1895.09C5006.44 1895.1 5007.79 1895.05 5009.09 1895.19C5010.96 1895.39 5012.77 1895.86 5014.59 1896.28C5020.02 1897.52 5027.75 1899.62 5032.41 1895.41C5033.24 1894.65 5033.94 1893.73 5034.62 1892.84C5035.54 1891.66 5036.41 1890.45 5037.22 1889.19C5040.27 1884.42 5042.6 1879.24 5044.47 1873.91C5047.26 1865.95 5049.05 1857.68 5050.91 1849.47C5053.07 1839.89 5055.18 1830.35 5056.75 1820.66C5059.03 1806.55 5060.6 1792.34 5062 1778.12C5063.02 1767.82 5063.98 1757.51 5064.84 1747.19C5068.37 1705.24 5070.62 1663.18 5073.59 1621.19C5075.88 1618.18 5062.76 1604.35 5044.28 1590.31C5025.8 1576.27 5008.97 1567.33 5006.69 1570.34C5003.71 1612.32 5001.43 1654.35 4997.91 1696.28C4997 1707.11 4995.97 1717.93 4994.91 1728.75C4993.56 1742.36 4992.06 1755.99 4989.88 1769.5C4988.32 1779.13 4986.21 1788.61 4984.06 1798.12C4982.23 1806.23 4980.44 1814.39 4977.69 1822.25C4975.77 1827.73 4973.35 1833.08 4970.09 1837.91C4968.97 1839.58 4967.78 1841.42 4966.28 1842.78C4963.1 1845.66 4958.25 1844.09 4954.59 1843.25C4953.82 1843.07 4953.05 1842.89 4952.28 1842.72C4951.44 1842.53 4950.51 1842.34 4949.66 1842.19C4945.1 1841.38 4940.43 1841.65 4935.81 1841.59C4929.63 1841.52 4923.43 1841.39 4917.25 1841.56C4901.8 1841.99 4886.33 1843.01 4870.91 1844.03C4838.62 1846.17 4806.41 1849.1 4774.19 1851.97C4736.2 1855.35 4698.17 1857.97 4660.03 1858.44C4649.66 1858.56 4639.27 1858.59 4628.91 1858.34C4619.72 1858.12 4610.53 1857.87 4601.34 1857.5C4579.5 1856.62 4557.66 1855.18 4535.84 1853.81C4519.71 1852.8 4503.59 1851.79 4487.44 1851C4479.34 1850.6 4471.23 1850.2 4463.12 1850C4454.14 1849.77 4445.14 1849.82 4436.16 1850C4419.56 1850.33 4402.96 1851.12 4386.38 1850.22C4378.77 1849.81 4371.2 1849.09 4363.62 1848.34C4339.86 1846 4316.26 1842.12 4292.75 1838C4267.92 1833.65 4242.96 1829.46 4218.78 1822.16C4198.43 1816.01 4178.79 1807.58 4159.81 1798.06C4149.45 1792.87 4139.09 1787.54 4129.25 1781.41C4120.42 1775.91 4112.06 1769.79 4103.88 1763.38C4103.36 1762.97 4102.83 1762.57 4102.31 1762.16C4102.42 1762.24 4102.11 1761.99 4102 1761.91C4101.99 1761.9 4102.01 1761.88 4102 1761.88C4101.89 1761.79 4101.77 1761.71 4101.66 1761.62C4101.29 1761.32 4100.93 1761.02 4100.56 1760.72C4100.62 1760.77 4100.47 1760.64 4100.38 1760.56C4100.36 1760.55 4100.36 1760.54 4100.34 1760.53C4100.26 1760.46 4100.01 1760.24 4100.09 1760.31C4094.51 1755.49 4088.78 1750.21 4083.31 1744.72C4078.5 1739.88 4073.91 1734.81 4069.12 1729.94C4066.78 1727.54 4064.39 1725.19 4062 1722.84C4060.46 1721.33 4058.79 1719.88 4057.44 1718.19C4055.5 1715.76 4054.01 1712.94 4053 1710C4051.69 1706.17 4051.14 1702.05 4050.56 1698.06C4049.29 1689.28 4048.82 1680.37 4048.97 1671.5C4049.2 1657.66 4050.87 1643.89 4053.19 1630.25C4055.66 1615.69 4058.93 1601.28 4062.78 1587.03C4069.05 1563.81 4076.8 1541.04 4084.62 1518.31C4089.56 1503.98 4094.42 1489.61 4099.62 1475.38C4108.58 1450.89 4118.35 1426.71 4128 1402.5C4133.49 1388.72 4138.98 1374.93 4144.19 1361.03C4149.31 1347.36 4154.26 1333.61 4159.94 1320.16C4161.75 1315.86 4163.57 1311.55 4165.66 1307.38C4167.99 1302.68 4170.72 1298.17 4173.53 1293.75C4182.56 1279.55 4193.26 1265.78 4197.81 1249.31C4198.24 1247.77 4198.6 1246.23 4198.91 1244.66C4199.14 1243.44 4199.42 1242.21 4199.22 1240.97C4199.09 1240.2 4198.84 1239.39 4198.5 1238.69C4198.1 1237.88 4197.71 1237.05 4197.19 1236.31C4195.82 1234.4 4194.52 1232.43 4192.88 1230.75C4187.46 1225.21 4182.02 1219.67 4176.06 1214.72C4171.67 1211.06 4167.12 1207.6 4162.5 1204.22C4162.99 1203.9 4163.45 1203.53 4163.97 1203.25C4166.72 1201.77 4169.68 1200.75 4172.66 1199.84C4177.58 1198.35 4182.6 1197.25 4187.56 1195.88C4191.08 1194.9 4194.63 1193.8 4197.91 1192.16C4200.44 1190.89 4202.85 1189.27 4204.59 1187C4206.88 1184.03 4207.71 1180.02 4207.03 1176.34C4206.56 1173.78 4205.14 1171.34 4203.56 1169.31C4202.21 1167.58 4200.87 1165.83 4199.34 1164.25C4195.77 1160.53 4192.18 1156.81 4188.28 1153.44C4181.78 1147.82 4175.1 1142.42 4168.19 1137.31C4190.17 1121.87 4212.34 1106.7 4234.56 1091.62C4234.86 1092.13 4235.13 1092.65 4235.44 1093.16C4238.57 1098.36 4241.95 1103.46 4245.84 1108.12C4250.72 1113.97 4256.15 1119.36 4261.75 1124.5C4267.49 1129.76 4273.45 1134.75 4279.56 1139.56C4288.42 1146.53 4297.65 1152.98 4307.16 1159.03C4309.42 1160.47 4311.7 1161.89 4313.97 1163.31C4314.8 1163.83 4315.62 1164.41 4316.47 1164.91C4316.59 1164.99 4316.69 1165.08 4316.81 1165.16C4317.38 1165.54 4318.53 1166.33 4319.09 1166.72C4321.82 1168.58 4324.57 1170.4 4327.34 1172.19C4334.31 1176.67 4341.47 1180.98 4349.06 1184.34C4354.57 1186.78 4360.35 1188.66 4366.41 1188.88C4373 1189.11 4379.48 1187.44 4385.59 1185.09C4390.14 1183.35 4394.52 1181.26 4398.72 1178.78C4405.19 1174.96 4411.22 1170.45 4417.38 1166.16C4424.81 1160.97 4432.65 1156.43 4440.47 1151.84C4463.06 1138.6 4486.19 1125.37 4504.69 1106.53C4509.55 1101.58 4513.98 1096.25 4518.03 1090.62C4525.49 1080.26 4531.78 1069.14 4538.69 1058.41C4546.14 1046.82 4554.04 1035.51 4561.66 1024.03C4569.34 1012.45 4576.82 1000.75 4584.03 988.875C4590.14 978.804 4596.19 968.686 4601.78 958.312C4604.18 953.857 4606.51 949.365 4608.72 944.812C4609.96 942.266 4611.13 939.683 4612.41 937.156C4617.17 927.731 4623.41 918.317 4624.53 907.562C4624.83 904.664 4624.79 901.558 4624.06 898.719C4622.89 894.19 4619.88 890.15 4616.91 886.656C4615.73 885.277 4614.57 883.898 4613.31 882.594C4610.87 880.056 4608.43 877.52 4605.84 875.125C4602.37 871.899 4598.81 868.778 4595.16 865.75C4591.2 862.469 4587.12 859.29 4583 856.219C4579.5 853.607 4575.91 851.121 4572.28 848.688C4569.88 847.078 4567.42 845.579 4564.94 844.094C4562.03 842.353 4559 840.735 4555.94 839.281C4551.49 837.173 4546.75 835.451 4541.84 834.844C4537.79 834.342 4533.6 834.85 4529.59 835.5C4519.81 837.086 4510.51 840.683 4501.47 844.625C4497.66 846.286 4493.89 848.017 4490.09 849.719C4483.75 852.564 4477.39 855.393 4471.16 858.469C4459.42 864.261 4447.95 870.55 4436.47 876.844C4424.33 883.503 4412.12 890.026 4399.81 896.375C4374.87 909.241 4349.71 921.771 4325.44 935.875C4311.25 944.116 4297.37 952.857 4283.56 961.719C4272.91 968.558 4262.37 975.57 4251.84 982.594C4250.05 975.119 4248.22 967.651 4246.5 960.156C4241.78 939.587 4237.23 918.957 4231.91 898.531C4227.73 882.506 4223.17 866.592 4218.56 850.688C4212.51 829.783 4206.31 808.913 4199.97 788.094C4199.72 787.281 4199.47 786.469 4199.22 785.656C4212.87 781.38 4226.52 777.097 4240.19 772.875C4263.83 765.571 4287.47 758.348 4311.12 751.094C4330.63 745.112 4350.16 739.144 4369.59 732.938C4399.74 723.311 4429.75 713.298 4459.34 702.062C4467.72 698.881 4476.07 695.598 4484.38 692.219C4488.49 690.543 4492.62 688.894 4496.69 687.094C4507.28 682.404 4516.88 675.817 4527.41 671C4532.49 668.672 4537.93 667.224 4543.25 665.531C4544.61 665.097 4545.99 664.662 4547.34 664.188C4549.39 663.468 4551.38 662.562 4553.47 661.969C4556.69 661.054 4560.02 660.575 4563.31 659.938C4564.31 659.744 4565.35 659.534 4566.34 659.312C4567.25 659.111 4568.33 658.845 4569.22 658.594C4571.76 657.877 4575.56 656.64 4576.56 653.844C4577.48 651.282 4575.92 648.464 4574.69 646.312C4571.9 641.439 4568.25 637.072 4564.41 633C4555.87 623.95 4546.35 615.855 4536.5 608.281C4527.2 601.131 4517.46 594.399 4507.09 588.875C4499.7 584.936 4491.98 581.992 4484.16 579.062C4482.07 578.281 4480 577.396 4477.91 576.625C4477.93 576.638 4477.78 576.583 4477.81 576.594C4475.06 575.265 4472.31 573.905 4469.53 572.625C4464.29 570.207 4458.97 567.994 4453.59 565.906C4437.68 559.732 4421.31 554.849 4405.28 549C4377.1 538.715 4349.18 527.52 4322.12 514.531C4298.78 503.321 4275.96 490.808 4254.94 475.625C4255.01 475.682 4254.61 475.382 4254.69 475.438C4254.17 475.045 4253.65 474.64 4253.12 474.25C4253.18 474.296 4253 474.17 4252.94 474.125C4252.88 474.083 4252.73 473.958 4252.78 474C4252.24 473.582 4251.7 473.165 4251.16 472.75C4251.22 472.798 4250.91 472.578 4250.97 472.625C4250.47 472.228 4249.97 471.832 4249.47 471.438C4249.5 471.466 4249.43 471.385 4249.38 471.344C4249.34 471.316 4249.29 471.309 4249.25 471.281C4249.17 471.221 4248.95 471.034 4249.03 471.094C4248.62 470.76 4248.23 470.425 4247.81 470.094C4247.88 470.151 4247.66 469.994 4247.59 469.938C4247.52 469.875 4247.3 469.689 4247.38 469.75C4246.87 469.332 4246.38 468.915 4245.88 468.5C4245.93 468.544 4245.67 468.332 4245.72 468.375C4245.17 467.909 4244.61 467.432 4244.06 466.969C4244.1 467.004 4243.98 466.91 4243.94 466.875C4243.91 466.847 4243.88 466.817 4243.84 466.781C4243.28 466.288 4242.72 465.802 4242.16 465.312C4242.21 465.359 4241.95 465.142 4242 465.188C4225.04 449.879 4209.74 432.761 4195.09 415.25C4186.45 404.908 4178.07 394.36 4169.88 383.656C4165.59 378.063 4161.29 372.452 4157.16 366.75C4150.77 357.952 4144.86 348.823 4138.78 339.812C4133 331.234 4127.07 322.771 4120.81 314.531C4112.23 303.233 4102.69 292.557 4092.25 282.938C4085.49 276.707 4078.4 270.893 4071.09 265.312C4068.11 259.721 4064.94 254.268 4060.75 249.469C4059.65 248.211 4058.57 246.977 4057.41 245.781C4055.15 243.465 4052.9 241.109 4050.5 238.938C4046.25 235.087 4041.97 231.276 4037.47 227.719C4031.8 223.24 4026 218.931 4020.03 214.875C4016.01 212.142 4011.76 209.719 4007.5 207.375C4005.7 206.387 4003.79 205.616 4001.88 204.875C4000.99 204.531 4000.06 204.32 3999.12 204.125C3998.35 203.962 3997.55 203.9 3996.78 204.031ZM4072.59 293.469C4078.72 302.418 4084.61 311.539 4090.81 320.438C4095.67 327.412 4100.8 334.2 4105.94 340.969C4131.61 374.776 4159.02 407.315 4189.38 437.031C4202.29 449.674 4215.79 461.71 4229.72 473.219C4259.7 497.98 4291.78 520.222 4325.53 539.531C4350.99 554.096 4377.41 566.918 4404.38 578.438C4417.97 584.245 4431.71 589.717 4445.53 594.969C4452.62 597.663 4459.72 600.352 4466.88 602.875C4473.32 605.151 4479.83 607.297 4486.31 609.469C4484.92 609.975 4483.52 610.479 4482.12 610.969C4480.81 611.431 4479.49 611.858 4478.16 612.281C4474.08 613.579 4469.95 614.722 4465.94 616.219C4456.05 619.909 4447.17 625.818 4437.88 630.719C4433.66 632.94 4429.3 634.761 4424.91 636.594C4420.96 638.242 4417.01 639.89 4413.03 641.469C4397.39 647.681 4381.65 653.606 4365.78 659.219C4330.28 671.775 4294.3 682.976 4258.31 694.031C4231.73 702.197 4205.15 710.359 4178.56 718.562C4168.55 686.142 4158.59 653.704 4149 621.156C4138.8 586.528 4129.04 551.781 4120.19 516.781C4109.9 476.123 4100.79 435.181 4092.25 394.125C4089.54 381.095 4086.9 368.024 4084.31 354.969C4082.78 347.242 4081.15 339.528 4079.91 331.75C4078.71 324.275 4077.64 316.792 4076.28 309.344C4075.59 305.562 4074.81 301.799 4073.91 298.062C4073.59 296.743 4073.27 295.413 4072.84 294.125C4072.77 293.903 4072.67 293.689 4072.59 293.469ZM4530.41 914.75C4530.35 914.851 4530.31 914.961 4530.25 915.062C4521.25 930.865 4511.74 946.389 4501.81 961.625C4492.94 975.246 4483.72 988.635 4474.75 1002.19C4466.2 1015.1 4458.78 1028.8 4449.44 1041.19C4427.73 1069.98 4394.96 1086.73 4364.66 1104.81C4359.15 1108.09 4353.82 1111.58 4348.59 1115.28C4341.65 1120.2 4334.76 1125.29 4327.06 1129C4320.92 1131.96 4314.27 1134.55 4307.44 1135.25C4304.42 1135.56 4301.28 1135.4 4298.38 1134.47C4295.4 1129.24 4292.72 1123.83 4290.34 1118.31C4287.03 1110.62 4284.14 1102.78 4281.38 1094.88C4278.05 1085.37 4275.04 1075.74 4272.34 1066.03C4287.76 1055.58 4303.17 1045.09 4318.66 1034.75C4333.93 1024.55 4349.33 1014.52 4364.91 1004.78C4377.56 996.875 4390.3 989.151 4403.34 981.906C4433.51 965.151 4464.7 950.332 4494.97 933.781C4506.73 927.349 4518.47 920.865 4530.41 914.75Z" fill="#000000" stroke="none"/>
</g>
</g>
</svg>
