<?xml version="1.0" encoding="UTF-8" standalone="no"?> <!-- Created with Vectornator (http://vectornator.io/) --><!DOCTYPE svg PUBLIC "-//W3C//DTD SVG 1.1//EN" "http://www.w3.org/Graphics/SVG/1.1/DTD/svg11.dtd">
<svg height="100%" stroke-miterlimit="10" style="fill-rule:nonzero;clip-rule:evenodd;stroke-linecap:round;stroke-linejoin:round;" version="1.1" viewBox="0 0 5120 2280" width="100%" xmlSpace="preserve" xmlns="http://www.w3.org/2000/svg" xmlnsVectornator="http://vectornator.io" xmlnsXlink="http://www.w3.org/1999/xlink">
<metadata>
<vectornator:setting key="IsTimeLapseWatermarkDisabled" value="false"/>
<vectornator:setting key="UndoHistoryDisabled" value="true"/>
<vectornator:setting key="VNDimensionsVisible" value="true"/>
<vectornator:setting key="VNSnapToGuides" value="true"/>
<vectornator:setting key="WDCMYKEnabledKey" value="false"/>
<vectornator:setting key="WDDisplayWhiteBackground" value="false"/>
<vectornator:setting key="WDDynamicGuides" value="false"/>
<vectornator:setting key="WDGuidesVisible" value="true"/>
<vectornator:setting key="WDIsolateActiveLayer" value="false"/>
<vectornator:setting key="WDOutlineMode" value="false"/>
<vectornator:setting key="WDRulersVisible" value="true"/>
<vectornator:setting key="WDSnapToEdges" value="false"/>
<vectornator:setting key="WDSnapToGrid" value="false"/>
<vectornator:setting key="WDSnapToPoints" value="false"/>
<vectornator:setting key="WDUnits" value="Pixels"/>
</metadata>
<defs/>
<g id="Layer-1" vectornator:layerName="Layer 1">
<g opacity="1">
<path d="M1101.12 258.375C1096.77 258.549 1092.98 260.947 1089.75 263.688C1085.09 267.641 1081.2 272.453 1077.19 277.031C1075.58 278.865 1073.98 280.686 1072.28 282.438C1070.75 284.021 1069.14 285.536 1067.41 286.906C1064.87 288.914 1062.1 290.642 1059.44 292.469C1055.18 295.39 1050.91 298.325 1046.66 301.25C1031.76 311.483 1016.85 321.713 1001.84 331.781C979.461 346.797 956.933 361.63 934.25 376.188C900.016 398.158 865.118 419.242 828.531 437.094C807.206 447.499 785.341 456.781 762.875 464.438C756.772 466.517 750.614 468.465 744.438 470.312C740.941 471.359 737.429 472.416 733.875 473.25C721.007 476.27 707.691 476.695 694.625 478.438C691.911 481.703 705.933 497.847 725.969 514.5C746.004 531.153 764.473 542.015 767.188 538.75C780.448 536.981 793.941 536.503 807 533.438C813.077 532.011 819.078 530.117 825.031 528.25C834.557 525.262 843.982 521.989 853.312 518.438C884.938 506.399 915.333 491.311 944.781 474.688C976.414 456.831 1006.98 437.182 1037.31 417.219C1052.46 407.247 1067.59 397.272 1082.62 387.125C1084.85 385.62 1087.06 384.073 1089.28 382.562C1089.07 383.232 1088.83 383.892 1088.62 384.562C1085.82 393.68 1083.53 402.918 1081.72 412.281C1078.21 430.369 1076.15 448.692 1073.44 466.906C1072.18 475.344 1070.66 483.729 1069.34 492.156C1067.71 502.571 1066.26 513.039 1064.97 523.5C1060.56 559.068 1057.93 594.844 1056 630.625C1054.03 667.191 1053.98 703.822 1052.53 740.406C1051.75 760.222 1050.62 780.021 1048.56 799.75C1047.71 807.918 1046.63 816.057 1045.44 824.188C1044.15 825.066 1042.92 826.01 1041.62 826.875C1036.54 830.281 1031.35 833.597 1026.06 836.688C1020.25 840.082 1014.33 843.283 1008.41 846.469C996.765 852.728 984.935 858.665 973 864.344C962.052 869.553 951.035 874.563 939.906 879.375C933.894 881.975 927.85 884.583 921.75 886.969C913.741 890.101 905.622 892.867 897.438 895.5C885.081 899.475 872.605 903.115 860.25 907.094C850.758 910.15 841.308 913.359 831.844 916.5C815.637 921.88 799.418 927.255 783.25 932.75C770.756 936.996 758.309 941.3 745.875 945.719C745.295 945.908 744.704 946.059 744.125 946.25C739.654 947.726 735.224 949.325 730.812 950.969C730.17 951.208 729.516 951.444 728.875 951.688C728.55 951.811 728.17 951.968 727.844 952.094C727.563 952.202 727.28 952.327 727 952.438C726.459 952.651 725.163 952.987 725.156 953.812C725.152 954.366 724.95 955.05 725.312 955.469C733.068 964.435 740.112 974.205 749.281 981.719C763.262 993.177 779.099 1002.19 794.281 1012C795.231 1012.61 796.468 1012.62 797.562 1012.91C798.304 1013.1 799.122 1012.93 799.938 1012.72C799.93 1012.72 799.875 1012.78 799.875 1012.78C799.875 1012.78 799.989 1012.74 800.031 1012.72C801.072 1012.43 802.081 1012 802.938 1011.69C803.41 1011.52 803.903 1011.36 804.375 1011.19C804.842 1011.02 805.314 1010.86 805.781 1010.69C809.528 1009.33 813.279 1007.99 817.031 1006.66C819.058 1005.98 821.049 1005.21 823.094 1004.59C828.623 1002.93 834.328 1001.98 840 1000.94C849.691 999.163 859.468 997.752 869.312 997.219C876.887 996.809 884.516 997.002 892.094 997.219C907.331 997.654 922.625 999.03 937.531 1002.31C940.538 1002.97 943.509 1003.76 946.406 1004.81C950.479 1006.29 954.34 1008.25 958.125 1010.34C958.259 1010.42 958.397 1010.49 958.531 1010.56C961.393 1012.81 964.247 1015.05 967.156 1017.22C973.028 1021.6 979.019 1025.83 985.188 1029.78C988.822 1032.11 992.238 1034.2 996 1036.28C998.795 1037.83 1001.3 1039.09 1004.19 1040.41C1007.43 1041.89 1010.83 1043.15 1014.22 1044.25C1019.42 1045.93 1025 1047.23 1030.59 1047.59C1028.57 1050.83 1026.61 1054.08 1024.53 1057.28C1013.81 1073.77 1001.97 1089.43 989.625 1104.72C979.263 1117.55 968.693 1130.2 958.406 1143.09C956.239 1145.81 954.03 1148.5 951.906 1151.25C949.519 1154.34 947.213 1157.53 944.875 1160.66C941.345 1165.38 937.829 1170.1 934.5 1174.97C923.25 1191.43 913.249 1208.7 902.719 1225.62C896.721 1235.26 890.557 1244.78 884.062 1254.09C876.351 1265.15 867.985 1275.77 859.625 1286.34C846.246 1303.26 832.548 1319.92 819.5 1337.09C800.365 1362.28 784.002 1389.49 763.75 1413.84C743.737 1437.9 720.27 1458.65 697.844 1480.38C691.315 1486.7 684.882 1493.15 678.531 1499.66C675.091 1503.18 671.647 1506.68 668.188 1510.19C658.319 1514.98 648.385 1519.67 638.625 1524.69C602.756 1543.13 567.837 1563.28 533.812 1584.94C523.593 1591.44 513.481 1598.13 503.438 1604.91C495.399 1610.33 487.412 1615.81 479.562 1621.5C461.68 1634.47 444.443 1648.32 427.406 1662.38C417.44 1670.6 407.364 1678.73 397.594 1687.19C389.284 1694.38 381.267 1701.89 373.375 1709.53C368.727 1714.03 364.098 1718.57 359.656 1723.28C356.492 1726.63 353.42 1730.07 350.375 1733.53C346.957 1737.42 343.576 1741.37 340.156 1745.25C338.655 1746.95 337.225 1748.73 335.594 1750.31C329.834 1755.9 322.373 1759.58 316.125 1764.59C311.268 1768.49 306.777 1773.4 308.312 1780.12C308.639 1781.56 309.159 1782.98 309.844 1784.28C310.272 1785.09 310.703 1785.9 311.219 1786.66C312.218 1788.13 313.202 1789.63 314.375 1790.97C317.498 1794.53 320.574 1798.18 324.094 1801.34C332.733 1809.12 341.553 1816.7 350.812 1823.72C357.507 1828.79 364.703 1833.19 371.875 1837.56C374.405 1839.11 377.132 1840.27 379.844 1841.47C380.967 1841.96 382.163 1842.28 383.344 1842.62C384.705 1843.02 386.178 1843.2 387.594 1843.12C390.573 1842.97 393.409 1841.58 395.938 1840.09C399.539 1837.98 402.866 1835.41 406.125 1832.81C409.259 1830.31 412.322 1827.72 415.531 1825.31C418.235 1823.29 421.028 1821.38 423.625 1819.22C424.615 1818.39 425.547 1817.49 426.5 1816.62C431.228 1812.32 435.622 1807.66 440.156 1803.16C443.279 1800.05 446.467 1797 449.906 1794.25C454.312 1790.72 458.996 1787.52 463.719 1784.44C477.712 1775.3 492.609 1767.61 506.5 1758.31C515.467 1752.31 523.953 1745.61 531.469 1737.84C536.113 1733.05 540.334 1727.83 544.312 1722.47C548.906 1716.29 553.18 1709.88 557.719 1703.66C560.673 1699.61 563.823 1695.69 566.719 1691.59C572.303 1683.7 577.411 1675.33 584.375 1668.53C589.428 1663.6 595.534 1659.83 601.844 1656.72C612.692 1651.38 624.249 1647.68 635.25 1642.69C639.359 1640.82 643.307 1638.67 647.312 1636.59C651.913 1634.21 656.549 1631.9 661.156 1629.53C675.93 1621.95 690.676 1614.08 704.125 1604.28C717.404 1594.6 729.315 1583.23 740.875 1571.59C741.55 1570.91 742.233 1570.24 742.906 1569.56C782.088 1550.6 821.971 1533.1 861.875 1515.72C880.456 1507.63 899.026 1499.51 917.562 1491.31C940.852 1481.02 964.114 1470.63 987.531 1460.62C1037.45 1439.3 1087.8 1418.87 1139.69 1402.78C1178.17 1390.85 1217.7 1382.83 1256.5 1372.06C1277.38 1366.27 1297.98 1359.58 1318.75 1353.41C1330.63 1349.87 1342.55 1346.49 1354.62 1343.69C1385.18 1336.61 1416.31 1332.47 1447.03 1326.22C1458.98 1323.79 1470.84 1320.98 1482.59 1317.72C1498.1 1313.42 1513.48 1308.6 1529.06 1304.59C1542.44 1301.15 1555.99 1298.3 1569.56 1295.72C1594.1 1291.05 1618.82 1287.51 1643.69 1285.19C1654.58 1284.17 1665.51 1283.3 1676.44 1282.88C1691.83 1282.28 1707.21 1283.53 1722.59 1283.31C1766.87 1282.68 1809.55 1269.04 1853.5 1265.34C1854.48 1265.26 1855.46 1265.25 1856.44 1265.19C1856.54 1268.29 1856.58 1271.38 1856.28 1274.47C1855.99 1277.49 1855.45 1280.46 1854.88 1283.44C1854.16 1287.13 1853.33 1290.81 1852.44 1294.47C1848.29 1311.42 1842.28 1327.94 1834.25 1343.44C1818.3 1374.23 1798.12 1402.55 1778.25 1430.88C1768.76 1444.4 1759.25 1457.88 1749.5 1471.22C1725.81 1503.61 1701.43 1535.5 1677.53 1567.75C1674.88 1571.12 1689.49 1587.08 1710.19 1603.38C1730.89 1619.67 1749.81 1630.12 1752.47 1626.75C1776.37 1594.5 1800.77 1562.62 1824.47 1530.22C1835.4 1515.28 1846.02 1500.12 1856.66 1484.97C1870.5 1465.26 1884.31 1445.49 1896.69 1424.81C1903.59 1413.29 1910.2 1401.52 1915.56 1389.19C1921.09 1376.46 1925.4 1363.2 1928.53 1349.69C1930.28 1342.16 1931.9 1334.53 1932.09 1326.78C1932.39 1315.22 1930.04 1304.13 1927.22 1293C1925.24 1285.21 1923.23 1277.36 1919.09 1270.38C1916.08 1265.28 1912.25 1260.69 1908.19 1256.41C1905.27 1253.33 1902.38 1250.48 1899.25 1247.59C1894.33 1243.05 1889.26 1238.69 1884.03 1234.5C1874.41 1226.78 1864.34 1219.53 1853.69 1213.28C1847.21 1209.48 1840.31 1206.11 1832.97 1204.34C1820.79 1201.42 1808.28 1203.76 1795.97 1204.22C1780.54 1204.79 1765.27 1206.59 1750.03 1209.06C1726.78 1212.83 1703.74 1218.02 1680.34 1220.88C1670.62 1222.06 1660.83 1222.86 1651.03 1223C1638.05 1223.19 1625.08 1222.31 1612.09 1222.41C1604.12 1222.47 1596.17 1222.97 1588.22 1223.53C1560.31 1225.51 1532.51 1229.04 1504.97 1234C1493.06 1236.14 1481.13 1238.44 1469.34 1241.19C1460.35 1243.28 1451.43 1245.6 1442.53 1248.09C1429.25 1251.81 1416.06 1255.88 1402.72 1259.41C1393.26 1261.91 1383.74 1264.08 1374.16 1266.03C1341.67 1272.64 1308.7 1276.88 1276.47 1284.72C1260.77 1288.54 1245.32 1293.3 1229.88 1298.03C1211.16 1303.76 1192.48 1309.56 1173.56 1314.59C1147.6 1321.51 1121.39 1327.43 1095.44 1334.38C1079 1338.78 1062.71 1343.7 1046.56 1349.06C990.007 1367.86 935.221 1391.22 880.688 1415.16C885.188 1408.74 889.728 1402.36 894.469 1396.12C907.728 1378.67 921.654 1361.78 935.25 1344.59C943.415 1334.27 951.562 1323.86 959.094 1313.06C965.614 1303.71 971.822 1294.15 977.844 1284.47C988.355 1267.58 998.333 1250.37 1009.56 1233.94C1013.12 1228.74 1016.89 1223.7 1020.66 1218.66C1022.73 1215.88 1024.73 1213.08 1026.84 1210.34C1029.22 1207.26 1031.73 1204.23 1034.16 1201.19C1051.21 1179.82 1069.17 1159.14 1085.28 1137.03C1108.01 1105.84 1126.08 1071.69 1145.84 1038.62C1157.43 1019.25 1169.54 1000.2 1181.62 981.125C1191.52 965.509 1201.35 949.832 1211.34 934.281C1221.48 918.518 1231.84 902.906 1241.34 886.75C1246.86 877.37 1253 868.228 1257.28 858.188C1259.75 852.402 1261.19 846.278 1262.81 840.219C1264.83 832.658 1267.01 824.259 1264.81 816.469C1263.37 811.35 1260.06 806.863 1256.62 802.906C1255.13 801.188 1253.62 799.468 1252.03 797.844C1249.35 795.106 1246.65 792.393 1243.81 789.812C1239.87 786.227 1235.86 782.698 1231.72 779.344C1226.82 775.373 1221.8 771.532 1216.69 767.844C1212.52 764.842 1208.21 762.025 1203.88 759.281C1201.39 757.707 1198.81 756.308 1196.22 754.906C1194.7 754.084 1193.14 753.34 1191.56 752.625C1186.6 750.372 1181.41 749.091 1176.03 750.312C1171.08 751.438 1166.53 753.998 1162.12 756.438C1159.73 757.765 1157.33 759.102 1154.88 760.312C1153.23 761.125 1151.54 761.82 1149.84 762.531C1142.74 765.515 1135.75 768.738 1128.81 772.094C1129.28 754.283 1129.71 736.476 1130.28 718.688C1130.97 697.404 1132.17 676.15 1133.62 654.906C1135.75 623.981 1138.65 593.067 1143.03 562.375C1144.53 551.91 1146.34 541.502 1148 531.062C1148.94 525.173 1149.74 519.281 1150.56 513.375C1153.53 492.11 1156.16 470.662 1161.97 449.938C1167.02 431.924 1173.95 414.523 1178.97 396.5C1180.48 391.074 1181.82 385.566 1182.88 380.031C1183.68 375.803 1184.29 371.566 1185.12 367.344C1187.03 357.777 1189.45 348.096 1189.41 338.281C1189.39 334.342 1188.92 330.393 1187.62 326.656C1186.09 322.225 1183.49 318.204 1180.53 314.594C1179.17 312.925 1177.78 311.263 1176.31 309.688C1173.96 307.165 1171.57 304.648 1169.06 302.281C1165.14 298.584 1161.14 294.955 1157 291.5C1151.8 287.156 1146.47 282.95 1141.03 278.906C1136.74 275.715 1132.33 272.723 1127.84 269.812C1124.61 267.714 1121.28 265.775 1117.91 263.906C1115.92 262.807 1113.85 261.837 1111.78 260.906C1110.62 260.384 1109.39 259.945 1108.19 259.531C1105.93 258.756 1103.52 258.279 1101.12 258.375ZM1139.72 869.969C1138.82 871.362 1137.93 872.763 1137.03 874.156C1130.22 884.664 1123.58 895.28 1116.91 905.875C1118.37 898.375 1119.65 890.836 1120.78 883.281C1127.14 878.91 1133.43 874.437 1139.72 869.969ZM1010.59 940.562C1004.43 951.949 997.16 962.631 988.688 972.438C983.572 978.358 977.505 984.162 969.781 986.344C964.241 987.908 958.335 987.46 952.781 986.094C946.957 981.69 941.057 977.394 934.938 973.406C932.617 971.894 930.156 970.608 927.781 969.188C931.812 967.859 935.824 966.488 939.875 965.219C956.412 960.038 973.105 955.275 989.375 949.281C996.557 946.635 1003.56 943.585 1010.59 940.562Z" fill="#000000" stroke="none"/>
</g>
<g opacity="1">
<path d="M2259.47 225.594C2257.74 225.933 2256.14 226.697 2255.22 228.094C2253.86 230.15 2254.35 232.915 2255 235.125C2256.26 239.407 2258.53 243.334 2260.5 247.312C2261.36 249.051 2262.24 250.807 2262.75 252.688C2263.12 254.052 2263.18 255.478 2263.34 256.875C2263.65 259.436 2263.9 262.024 2264.12 264.594C2264.9 273.426 2265.2 282.282 2265.84 291.125C2263.78 293.877 2273.38 304.596 2288.06 316.844C2286.4 328.158 2283.76 339.309 2280.16 350.188C2272.53 373.25 2261.5 394.998 2251.59 417.125C2248.96 420.511 2263.66 436.373 2284.44 452.531C2305.21 468.69 2324.21 479.042 2326.84 475.656C2336.48 454.144 2347.1 432.983 2354.78 410.656C2361.23 391.91 2365.22 372.202 2365.53 352.344C2365.65 344.624 2365.07 336.974 2363.91 329.344C2363.1 324.025 2362.07 318.738 2360.38 313.625C2359.23 310.175 2357.77 306.833 2356 303.656C2354.23 300.483 2352.21 297.434 2350.25 294.375C2347.69 290.381 2344.95 286.481 2341.94 282.812C2336.21 275.846 2329.71 269.536 2322.97 263.562C2318.36 259.476 2313.57 255.445 2308.72 251.656C2303.2 247.347 2297.53 243.188 2291.72 239.281C2289.43 237.742 2287.13 236.258 2284.78 234.812C2282.91 233.659 2280.99 232.571 2279.06 231.5C2277.7 230.744 2276.33 230.034 2274.94 229.344C2273.91 228.833 2272.84 228.363 2271.78 227.906C2270.34 227.282 2268.91 226.736 2267.41 226.281C2266.45 225.992 2265.51 225.76 2264.53 225.594C2263.06 225.345 2261.2 225.255 2259.47 225.594Z" fill="#000000" stroke="none"/>
</g>
<g opacity="1">
<path d="M2393.66 362.25C2392.49 362.18 2391.42 363.043 2390.66 363.812C2389.06 365.407 2387.76 367.33 2386.5 369.188C2385.87 370.117 2385.24 371.06 2384.62 372C2381.18 377.257 2377.99 382.682 2373.81 387.406C2368.13 393.843 2361.65 399.77 2356.78 406.875C2356.63 406.998 2356.49 407.128 2356.34 407.25C2353.04 409.959 2349.57 412.424 2345.81 414.469C2342.24 416.413 2338.48 417.976 2334.66 419.344C2326.78 422.162 2318.6 424.097 2310.66 426.719C2305.51 428.419 2300.44 430.345 2295.31 432.125C2285.11 435.669 2274.9 439.173 2264.75 442.875C2250.94 447.914 2237.39 453.599 2223.88 459.375C2207.87 466.214 2191.95 473.287 2176.22 480.719C2161.77 487.544 2147.45 494.631 2133.62 502.656C2120.23 510.427 2107.2 518.857 2093.5 526.094C2079.84 533.312 2064.72 537.397 2051.34 545.188C2047.81 547.248 2044.44 549.572 2041.31 552.219C2040.68 552.754 2039.7 553.529 2039.5 554.375C2039.42 554.709 2039.22 555.1 2039.38 555.406C2040.83 558.278 2041.75 561.684 2044.22 563.75C2064.78 580.96 2086.39 596.905 2107.97 612.812C2109.26 613.761 2111.01 613.758 2112.56 614.125C2114.01 614.466 2116.08 613.829 2117.47 613.406C2123.91 611.452 2130.16 608.78 2136.5 606.531C2139.67 605.407 2142.86 604.268 2146.16 603.562C2147.98 603.173 2149.93 602.961 2151.78 602.781C2159.83 602.002 2167.95 602.61 2175.94 601.125C2186.41 599.178 2195.48 593.261 2205.03 588.875C2206.67 586.855 2201.54 579.868 2193.06 571.188C2197.97 568.238 2202.89 565.312 2207.84 562.438C2214.52 558.561 2221.28 554.835 2228.16 551.312C2234.2 548.214 2240.37 545.297 2246.5 542.375C2258.48 536.668 2270.54 531.179 2282.69 525.844C2297.4 519.383 2312.17 512.929 2327.16 507.125C2325.41 511.577 2323.59 515.999 2321.97 520.5C2318.57 529.973 2315.67 539.616 2312.88 549.281C2308.29 565.104 2304.2 581.079 2300.34 597.094C2294.29 622.243 2289.13 647.601 2284.09 672.969C2278.49 701.175 2273.06 729.417 2267.16 757.562C2265.89 763.593 2264.59 769.607 2263.12 775.594C2260.8 785.1 2258.25 794.523 2255.81 804C2253.62 812.513 2251.54 821.068 2249.81 829.688C2249.18 832.841 2248.5 835.973 2248.03 839.156C2246.23 851.479 2246.43 863.968 2245.69 876.375C2244.12 902.669 2242.56 928.979 2241.12 955.281C2239.89 977.848 2238.49 1000.39 2236.97 1022.94C2236.08 1036.17 2235.21 1049.41 2234.59 1062.66C2234.26 1069.86 2233.93 1077.07 2233.84 1084.28C2233.53 1111.27 2235.69 1138.18 2237.03 1165.12C2238.9 1202.53 2237.44 1240.02 2237.06 1277.44C2237.03 1280.45 2237.04 1283.46 2237.03 1286.47C2237.03 1287.91 2237.06 1289.34 2236.94 1290.78C2236.63 1294.31 2235.83 1297.82 2235.12 1301.28C2234.44 1304.65 2233.71 1308.05 2233.34 1311.47C2233.11 1313.68 2232.97 1316.05 2233.72 1318.19C2233.88 1318.66 2234.05 1319.12 2234.28 1319.56C2234.73 1320.45 2235.15 1321.36 2235.75 1322.16C2237.8 1324.9 2239.7 1327.84 2242.22 1330.16C2253.51 1340.53 2264.85 1350.86 2277.06 1360.12C2284.57 1365.82 2292.99 1370.24 2301.19 1374.88C2302.84 1375.81 2304.72 1376.24 2306.53 1376.78C2307.17 1376.97 2307.84 1376.98 2308.5 1377.03C2309.36 1377.09 2310.26 1376.92 2311.06 1376.62C2313.43 1375.76 2315.71 1374.3 2317.78 1372.88C2323.09 1369.2 2327.47 1364.42 2331.41 1359.34C2337.43 1351.57 2342.38 1343.06 2348.34 1335.25C2351.36 1331.29 2354.72 1327.69 2358.28 1324.22C2379.12 1303.91 2402.5 1286.49 2424.09 1267.03C2431.08 1260.73 2437.9 1254.27 2444.34 1247.41C2447.53 1244.01 2450.71 1240.56 2453.59 1236.91C2463.04 1224.94 2469.59 1211.05 2475.88 1197.25C2479.01 1190.36 2482.15 1183.46 2485.47 1176.66C2488.11 1173.27 2473.42 1157.43 2452.66 1141.25C2431.89 1125.07 2412.92 1114.68 2410.28 1118.06C2406.51 1125.8 2402.97 1133.65 2399.38 1141.47C2393.76 1153.69 2387.81 1165.93 2379.59 1176.66C2376.5 1180.69 2373.07 1184.45 2369.59 1188.16C2363.51 1194.63 2357.07 1200.8 2350.47 1206.75C2338.26 1217.75 2325.6 1228.2 2313.03 1238.78C2312.89 1233.16 2312.84 1227.52 2312.56 1221.91C2311.29 1196.35 2309.25 1170.82 2309.34 1145.22C2309.41 1127.53 2310.57 1109.83 2311.72 1092.19C2313.13 1070.56 2314.65 1048.95 2315.84 1027.31C2317.52 996.815 2319.19 966.328 2321.09 935.844C2321.8 924.504 2321.75 913.087 2322.94 901.781C2323.44 896.982 2324.33 892.289 2325.28 887.562C2326.19 883.033 2327.19 878.526 2328.25 874.031C2332.41 856.471 2337.59 839.181 2341.38 821.531C2351.89 772.553 2360.38 723.158 2371.38 674.281C2375.7 655.072 2380.33 635.912 2385.59 616.938C2388.01 608.227 2390.45 599.503 2393.25 590.906C2395.88 582.826 2398.8 574.859 2401.88 566.938C2406.9 554 2412.31 541.201 2416.53 527.969C2418.74 521.032 2420.54 514.172 2421.5 506.938C2422.86 496.707 2423.21 486.178 2426.5 476.312C2427.53 473.235 2428.85 470.287 2430.56 467.531C2430.88 467.015 2431.29 466.564 2431.62 466.062C2438.45 460.318 2444.52 453.648 2450.66 447.188C2454.77 442.852 2459.7 439.3 2463.53 434.688C2465.7 432.082 2467.47 429.09 2468.09 425.719C2468.39 424.127 2468.54 422.29 2468.06 420.719C2467.91 420.219 2467.79 419.702 2467.53 419.25C2466.47 417.431 2465.67 415.368 2464.12 413.938C2450.15 400.982 2436.33 387.772 2421.16 376.25C2413.69 370.58 2404.89 366.881 2396.53 362.625C2395.67 362.185 2394.62 362.308 2393.66 362.25Z" fill="#000000" stroke="none"/>
</g>
<g opacity="1">
<path d="M2852.03 41.7188C2851.5 41.687 2850.65 41.7466 2850.25 42.1875C2849.72 42.7639 2849.41 43.5595 2849.06 44.25C2848.45 45.4532 2847.87 46.6641 2847.28 47.875C2845.68 51.1365 2844.18 54.4445 2842.75 57.7812C2837.33 70.4002 2832.84 83.3624 2829.06 96.5625C2821.78 121.974 2817.46 148.174 2814 174.344C2810.54 200.457 2807.93 226.653 2804.59 252.781C2798.77 298.332 2792.72 343.865 2786.59 389.375C2776.99 398.972 2767.61 408.813 2757.16 417.5C2748.21 424.933 2738.5 431.433 2728.69 437.656C2717.68 444.639 2706.38 451.172 2695.12 457.75C2686.54 462.766 2678.09 467.972 2669.25 472.531C2657.55 478.567 2645.53 484.038 2634.31 490.969C2629.26 494.089 2624.22 497.472 2619.81 501.469C2614.55 506.24 2610.77 512.347 2607.34 518.5C2604.22 524.105 2601.32 529.807 2597.81 535.188C2595.16 538.568 2609.82 554.506 2630.56 570.781C2651.31 587.056 2670.28 597.506 2672.94 594.125C2676.47 588.693 2679.38 582.939 2682.53 577.281C2685.82 571.377 2689.45 565.486 2694.5 560.906C2699.48 556.385 2705.26 552.648 2711.03 549.219C2721.88 542.77 2733.39 537.5 2744.59 531.719C2753.04 527.359 2761.11 522.327 2769.31 517.531C2769.35 517.508 2769.4 517.492 2769.44 517.469C2769.18 519.543 2768.86 521.611 2768.62 523.688C2766.16 545.086 2763.98 566.758 2757.41 587.375C2754.31 597.076 2750.09 606.294 2745.16 615.188C2742.57 619.849 2739.72 624.364 2736.75 628.781C2718.77 637.406 2700.51 645.402 2681.88 652.5C2647.43 665.625 2612.02 676.061 2577 687.5C2567.63 690.559 2558.29 693.667 2549 696.938C2536.38 701.378 2523.86 706.108 2511.31 710.75C2487.49 719.564 2463.71 728.583 2440.66 739.281C2430.19 744.139 2419.97 749.522 2409.56 754.5C2396.96 760.525 2383.93 766.579 2373.47 776.031C2369.22 779.87 2365.46 784.274 2362.66 789.281C2361.1 792.057 2359.62 794.646 2360.91 797.875C2361.22 798.652 2361.52 799.449 2361.97 800.156C2363.08 801.921 2364.18 803.719 2365.56 805.281C2369.54 809.77 2373.52 814.263 2378 818.25C2386.44 825.763 2395.21 832.938 2404.25 839.719C2409.98 844.022 2416.14 847.716 2422.25 851.469C2424.47 852.83 2426.85 853.901 2429.19 855.031C2431.45 856.124 2433.9 856.998 2436.34 857.594C2440.06 858.498 2443.92 858.6 2447.72 858.531C2453.07 858.434 2458.41 857.94 2463.75 857.594C2465.96 857.45 2468.16 857.309 2470.38 857.312C2473.46 857.318 2476.51 857.41 2479.59 857.188C2485.31 856.775 2490.98 855.768 2496.66 855C2502.24 854.245 2507.86 853.819 2513.47 853.312C2523.11 852.441 2532.78 851.497 2542.28 849.594C2547.19 848.61 2552.17 847.444 2556.84 845.625C2558.54 844.967 2560.26 844.265 2561.91 843.5C2568.03 840.654 2573.69 836.915 2579.72 833.875C2584.8 831.312 2590.23 829.43 2595.59 827.562C2608.57 823.046 2621.84 819.381 2634.88 815.031C2640.82 813.048 2646.73 810.952 2652.5 808.5C2676.63 798.242 2697.92 782.552 2719.53 767.969C2744.84 750.893 2770.93 734.258 2792.25 712.156C2799.39 704.755 2805.88 696.715 2811.66 688.188C2827.8 680.413 2843.71 672.149 2859.38 663.469C2869.84 657.667 2880.23 651.67 2890.5 645.531C2898.18 640.945 2905.86 636.353 2913.25 631.312C2916 629.438 2918.63 627.43 2921.31 625.469C2921.06 636.304 2920.78 647.131 2920.59 657.969C2920.19 681.81 2919.17 705.651 2919.56 729.5C2919.83 745.67 2920.93 761.788 2922.88 777.844C2929.42 831.949 2943.79 884.796 2950.09 938.938C2956.72 995.848 2956.24 1053.29 2962.25 1110.25C2963.1 1118.31 2964.08 1126.35 2965.22 1134.38C2965.93 1139.37 2966.65 1144.39 2967.62 1149.34C2969.93 1161.12 2973.82 1172.5 2976.72 1184.12C2978.58 1191.6 2980.01 1199.19 2981.5 1206.75C2983.39 1216.35 2985.24 1225.94 2986.81 1235.59C2988.73 1247.36 2990.46 1259.21 2991.06 1271.12C2991.92 1288.1 2991.49 1305.15 2994.03 1322C2995.44 1331.36 2997.36 1340.64 2998.59 1350.03C3001.69 1373.69 3004.01 1397.49 3005.75 1421.28C3006.61 1433.07 3007.26 1444.85 3007.81 1456.66C3008.55 1472.35 3009.33 1488.06 3011.81 1503.59C3013.1 1511.65 3014.7 1519.79 3017.19 1527.56C3019.09 1533.49 3021.61 1539.22 3023.28 1545.22C3024.19 1548.49 3024.55 1551.82 3024.91 1555.19C3025.58 1561.61 3026.39 1569 3023.06 1574.88C3021.09 1578.36 3017.72 1580.77 3014.16 1582.44C3008.73 1584.98 3002.73 1586.11 2996.94 1587.5C2993.45 1588.34 2989.94 1589.11 2986.41 1589.75C2968.69 1592.97 2950.57 1593.63 2932.59 1593.72C2914.89 1593.8 2897.2 1593.25 2879.5 1593.19C2876.79 1596.4 2890.57 1612.5 2910.28 1629.16C2929.99 1645.81 2948.16 1656.71 2950.88 1653.5C2972.27 1653.58 2993.69 1654.38 3015.09 1653.88C3031.07 1653.5 3047.12 1652.46 3062.81 1649.28C3066 1648.63 3069.15 1647.82 3072.31 1647.06C3081.51 1644.86 3093.1 1642.6 3098.19 1633.62C3098.76 1632.62 3099.22 1631.53 3099.59 1630.44C3101.4 1625.16 3101.12 1619.41 3100.62 1613.94C3100.21 1609.31 3099.72 1604.71 3098.47 1600.22C3096.76 1594.06 3094.2 1588.21 3092.25 1582.12C3091.06 1578.41 3090.2 1574.56 3089.38 1570.75C3088.13 1564.99 3087.11 1559.19 3086.34 1553.34C3084.24 1537.35 3083.74 1521.19 3082.94 1505.09C3082.22 1490.68 3081.24 1476.28 3080 1461.91C3078.4 1443.33 3076.52 1424.77 3074.09 1406.28C3072.59 1394.8 3069.99 1383.47 3068.66 1371.97C3066.87 1356.58 3067.37 1341.01 3066.44 1325.56C3065.64 1312.31 3063.57 1299.14 3061.31 1286.06C3059.8 1277.27 3058.1 1268.51 3056.38 1259.75C3055.04 1252.95 3053.71 1246.13 3052.03 1239.41C3049.48 1229.18 3046.12 1219.17 3043.81 1208.88C3042.7 1203.89 3041.91 1198.83 3041.16 1193.78C3040.24 1187.66 3039.46 1181.52 3038.75 1175.38C3034.52 1138.93 3033.08 1102.27 3031.09 1065.66C3029.74 1040.7 3028.18 1015.72 3025.06 990.906C3018.3 937.066 3004.08 884.431 2997.94 830.5C2996.6 818.722 2995.71 806.909 2995.31 795.062C2994.33 765.9 2995.74 736.69 2996.25 707.531C2996.64 684.819 2997.27 662.11 2998 639.406C2998.55 622.45 2999.15 605.492 2999.53 588.531C2999.72 580.206 3000.04 571.888 3000.28 563.562C3000.52 563.385 3000.76 563.208 3001 563.031C3025.5 544.934 3050.37 527.205 3073.59 507.469C3075.26 506.055 3076.88 504.59 3078.62 503.281C3080.57 501.828 3082.6 500.519 3084.62 499.188C3089.44 496.023 3094.78 492.71 3097.88 487.688C3098.49 486.686 3099 485.616 3099.38 484.5C3102.17 476.115 3096.44 467.684 3091.41 461.5C3090.6 460.514 3089.78 459.518 3088.94 458.562C3087.75 457.204 3086.55 455.879 3085.31 454.562C3083.98 453.148 3082.62 451.747 3081.25 450.375C3079.82 448.946 3078.37 447.548 3076.91 446.156C3074.05 443.441 3071.38 441.035 3068.44 438.438C3065.53 434.811 3062.57 431.232 3059.38 427.875C3049.65 417.646 3038.98 408.433 3027.81 399.812C3020.85 394.434 3013.58 389.397 3006.06 384.812C3001.32 381.917 2996.37 379.161 2991.16 377.188C2988.27 376.094 2985.15 375.257 2982.03 375.5C2979.69 375.683 2977.4 376.534 2975.28 377.5C2965.41 381.999 2958.77 391.303 2953.03 400.125C2950.8 403.562 2948.66 407.044 2946.41 410.469C2944.15 413.893 2941.84 417.195 2940.06 420.906C2936.34 428.683 2934.18 437.162 2931.66 445.375C2929.67 451.827 2927.92 458.4 2926.97 465.094C2926.45 468.747 2926.22 472.415 2925.97 476.094C2925.59 481.512 2925.3 486.948 2925.06 492.375C2924.88 496.51 2924.84 500.645 2924.72 504.781C2915.61 511.503 2906.57 518.298 2897.69 525.312C2880.44 538.935 2863.94 553.547 2846.16 566.469C2847.97 552.338 2849.8 538.211 2851.72 524.094C2855.16 498.783 2858.53 473.47 2861.94 448.156C2862.69 447.407 2863.43 446.652 2864.19 445.906C2871.04 439.143 2878.17 432.645 2885.25 426.125C2892.01 419.9 2898.8 413.697 2905.5 407.406C2908.39 404.693 2911.23 401.924 2914.16 399.25C2919.9 393.996 2926.12 389.207 2931.25 383.312C2936.11 377.734 2939.96 370.953 2942.31 363.938C2943.47 360.494 2944.22 356.885 2944.34 353.25C2944.45 350.131 2944.11 346.983 2943.62 343.906C2942.81 338.706 2941.37 333.616 2939.62 328.656C2938.06 324.222 2936.24 319.897 2934.28 315.625C2931.83 310.296 2929.16 305.115 2925.97 300.188C2922.18 294.329 2917.92 288.798 2913.81 283.156C2912.74 281.686 2911.75 280.174 2910.75 278.656C2910.21 277.836 2909.71 276.923 2909.09 276.156C2908.09 274.243 2907.03 272.367 2906.06 270.438C2905.36 269.03 2904.79 267.506 2904.25 266.031C2903.25 263.319 2902.42 260.545 2901.69 257.75C2899.65 249.975 2898.44 241.969 2897.75 233.969C2896.92 224.452 2896.83 214.875 2897.5 205.344C2898.06 197.313 2899.25 189.309 2900.59 181.375C2902.83 168.113 2905.87 154.989 2909.34 142C2910.62 137.219 2912.38 132.602 2914.19 128C2916.17 122.95 2918.26 117.937 2920.38 112.938C2921.59 110.06 2922.82 107.191 2924.03 104.312C2924.35 103.558 2924.66 102.792 2924.97 102.031C2925.21 101.435 2925.47 100.87 2925.41 100.219C2925.38 99.9176 2925.32 99.5529 2925.22 99.2812C2925.03 98.7758 2924.89 98.2327 2924.59 97.7812C2923.18 95.6067 2921.83 93.3319 2920.09 91.4062C2915.67 86.5008 2910.81 82.0353 2906.16 77.3438C2900.76 72.8548 2895.63 68.0218 2889.97 63.875C2881.44 57.6267 2872.6 51.7764 2863.62 46.1875C2861.15 44.6484 2858.38 43.6473 2855.69 42.5312C2854.87 42.1908 2853.99 42.0369 2853.12 41.8438C2852.76 41.7629 2852.4 41.7411 2852.03 41.7188Z" fill="#000000" stroke="none"/>
</g>
<g opacity="1">
<path d="M2652.78 998.719C2650.38 998.961 2648.12 999.49 2646.19 1001C2643.25 1003.29 2641.71 1006.9 2640.41 1010.28C2638.79 1014.48 2637.58 1018.85 2635.28 1022.75C2632.63 1026.13 2647.33 1042.07 2668.09 1058.31C2688.85 1074.56 2707.82 1084.98 2710.47 1081.59C2713.05 1077.19 2714.32 1072.26 2716.22 1067.56C2717.33 1064.8 2718.79 1061.67 2721.44 1060.06C2721.57 1059.98 2721.73 1059.98 2721.88 1059.91C2723.3 1062.72 2724.66 1065.58 2725.78 1068.53C2729.45 1078.18 2731.58 1088.34 2733.44 1098.47C2734.15 1102.36 2734.81 1106.26 2735.5 1110.16C2735.99 1112.96 2736.54 1115.74 2736.69 1118.59C2737.05 1125.4 2736.18 1132.22 2736.09 1139.03C2733.52 1142.43 2748.33 1157.95 2769.19 1173.72C2790.04 1189.48 2809.02 1199.49 2811.59 1196.09C2811.68 1189.17 2812.55 1182.27 2812.19 1175.34C2812 1171.82 2811.36 1168.37 2810.75 1164.91C2810.2 1161.78 2809.66 1158.63 2809.09 1155.5C2806.77 1142.58 2803.92 1129.65 2798.66 1117.56C2796.01 1111.48 2792.8 1105.65 2789.28 1100.03C2777.69 1081.52 2762.39 1065.6 2746.09 1051.19C2738.23 1044.23 2730.08 1037.59 2721.69 1031.28C2716.69 1027.52 2711.62 1023.9 2706.44 1020.41C2701.85 1017.32 2697.18 1014.35 2692.41 1011.56C2688.73 1009.42 2684.99 1007.4 2681.16 1005.56C2678.27 1004.18 2675.32 1002.9 2672.31 1001.81C2670.75 1001.25 2668.95 1000.66 2667.34 1000.22C2662.63 998.919 2657.67 998.224 2652.78 998.719Z" fill="#000000" stroke="none"/>
</g>
<g opacity="1">
<path d="M3844.19 336C3841.95 336.281 3839.85 337.213 3837.94 339.062C3836.64 340.322 3835.56 341.813 3834.66 343.375C3832.33 347.401 3830.9 351.916 3829.78 356.406C3828.19 362.798 3827.14 369.366 3827.31 375.969C3827.6 386.619 3830.36 396.981 3832.56 407.344C3833.85 413.385 3834.91 419.451 3836.31 425.469C3838.54 435.018 3841.19 444.457 3843.44 454C3844.55 458.743 3845.57 463.535 3846.53 468.312C3850.29 487.034 3853.32 505.869 3857.06 524.594C3859.03 534.434 3861.2 544.247 3863.56 554C3876.63 608.024 3895.28 660.421 3911.28 713.594C3914.63 724.733 3917.94 735.904 3921.34 747.031C3921.02 747.193 3920.7 747.37 3920.38 747.531C3853.22 780.759 3781.72 805.645 3718.72 846.875C3709.67 852.797 3700.88 859.082 3692.53 865.969C3675.53 879.999 3659.88 895.572 3643.66 910.469C3641.29 913.448 3654.19 927.644 3672.47 942.188C3690.75 956.73 3707.47 966.104 3709.84 963.125C3726.04 948.256 3741.69 932.722 3758.66 918.719C3766.93 911.891 3775.62 905.654 3784.59 899.781C3835.04 866.765 3890.96 844.236 3945.72 819.5C3951.06 834.009 3956.93 848.307 3964.34 861.906C3972.38 876.656 3981.87 890.573 3991.81 904.094C3997.69 912.081 4003.54 920.133 4009.97 927.688C4015.96 934.725 4022.4 941.347 4028.91 947.906C4030.93 949.944 4032.95 951.994 4034.94 954.062C4035.58 954.735 4036.23 955.39 4036.88 956.062C4037.42 956.722 4038.04 957.368 4038.59 958C4039.12 958.6 4039.65 959.183 4040.19 959.781C4037.18 961.894 4034.2 964.051 4031.19 966.156C4010.12 980.871 3988.81 995.221 3967.12 1009C3959.9 1013.59 3952.63 1018.09 3945.31 1022.53C3939.68 1025.95 3934.02 1029.38 3928.25 1032.56C3911.78 1041.66 3894.48 1049.04 3877.5 1057.09C3867.76 1061.71 3858.11 1066.55 3848.72 1071.84C3831.64 1081.47 3815.57 1092.8 3798.97 1103.22C3786.72 1110.91 3774.16 1118.09 3761.09 1124.31C3739.71 1134.49 3717.49 1142.77 3695.94 1152.56C3676.65 1161.33 3658.02 1171.54 3638.44 1179.66C3619.21 1187.63 3599.06 1193.21 3580.12 1201.91C3573.82 1204.8 3567.81 1208.15 3562.03 1212C3553.9 1217.42 3546.19 1223.46 3538.06 1228.88C3536.73 1229.76 3535.43 1230.69 3534.06 1231.53C3532.7 1232.37 3531.27 1233.09 3529.88 1233.88C3528.48 1234.66 3527.08 1235.52 3525.66 1236.25C3521.55 1238.36 3517.33 1240.21 3513.03 1241.94C3504.81 1243.62 3496.57 1245.2 3488.31 1246.66C3456.41 1252.3 3424.25 1256.26 3392.31 1261.69C3380.98 1263.61 3369.67 1265.72 3358.44 1268.16C3350.77 1269.81 3343.17 1271.67 3335.53 1273.44C3318.51 1277.37 3300.75 1281.7 3286.19 1291.81C3284.97 1292.66 3283.78 1293.53 3282.62 1294.47C3277.65 1298.51 3271.73 1304.57 3273.53 1311.62C3273.96 1313.3 3274.7 1314.95 3275.62 1316.41C3276.2 1317.32 3276.8 1318.24 3277.47 1319.09C3278.81 1320.81 3280.12 1322.53 3281.62 1324.09C3285.18 1327.79 3288.74 1331.52 3292.62 1334.88C3299.49 1340.8 3306.58 1346.48 3313.88 1351.88C3318.66 1355.42 3323.75 1358.53 3328.84 1361.62C3331 1362.93 3333.29 1364.02 3335.56 1365.09C3337.53 1366.02 3339.73 1366.77 3341.91 1367.09C3345.23 1367.58 3348.48 1366.46 3351.47 1365.12C3354.89 1363.6 3358.11 1361.71 3361.53 1360.19C3364.66 1358.8 3367.93 1358.2 3371.25 1357.41C3375.9 1356.29 3380.57 1355.15 3385.25 1354.16C3391.98 1352.73 3398.79 1351.76 3405.59 1350.75C3416.69 1349.1 3427.8 1347.52 3438.75 1345.03C3443.39 1343.97 3448.04 1342.78 3452.56 1341.28C3455.71 1340.24 3458.91 1339.16 3462 1337.97C3463.94 1337.22 3465.83 1336.36 3467.75 1335.56C3477.3 1331.57 3486.58 1326.94 3496.06 1322.81C3505.44 1318.73 3515.07 1315.4 3524.84 1312.38C3539.58 1307.81 3554.5 1303.83 3569.03 1298.62C3572.12 1297.52 3575.19 1296.32 3578.25 1295.09C3599.28 1290.78 3620.18 1285.83 3640.81 1279.88C3653.49 1276.21 3666.1 1272.27 3678.53 1267.84C3707.77 1257.43 3735.53 1243.38 3764.22 1231.62C3787.29 1222.18 3810.67 1213.5 3833.75 1204.09C3828.09 1211.47 3822.52 1218.92 3817 1226.41C3814.22 1230.18 3811.44 1233.91 3809.03 1237.94C3805.67 1243.56 3802.73 1249.42 3799.34 1255.03C3796.43 1259.86 3793.17 1264.48 3789.97 1269.12C3763.41 1307.68 3734.74 1344.79 3710.66 1385C3685.98 1426.21 3665.37 1469.66 3644 1512.62C3636.12 1528.47 3628 1544.2 3619.84 1559.91C3612.77 1573.54 3605.64 1587.16 3598.91 1600.97C3588.54 1622.22 3578.56 1643.63 3570.34 1665.81C3567.69 1672.99 3565.18 1680.22 3562.91 1687.53C3561.14 1693.21 3559.74 1699.02 3557.66 1704.59C3554.36 1713.39 3550.32 1721.91 3547.56 1730.91C3546.41 1734.67 3545.04 1739.14 3546.66 1742.97C3547.15 1744.15 3547.89 1745.45 3548.62 1746.47C3549.58 1747.79 3550.53 1749.13 3551.62 1750.34C3554.43 1753.45 3557.23 1756.58 3560.34 1759.38C3567.21 1765.53 3574.2 1771.54 3581.53 1777.12C3587.14 1781.4 3593.12 1785.19 3599.09 1788.94C3601.49 1790.44 3604.05 1791.65 3606.59 1792.88C3607.67 1793.39 3608.81 1793.77 3609.94 1794.16C3613.53 1795.4 3616.22 1794.73 3619.5 1793.09C3621.02 1792.33 3622.47 1791.42 3623.81 1790.38C3629.63 1785.85 3633.26 1779.17 3636.16 1772.53C3640.45 1762.69 3643.22 1752.04 3648.78 1742.78C3651.41 1738.41 3654.3 1734.21 3657.12 1729.97C3662.73 1721.55 3668.46 1713.23 3674.06 1704.81C3689.42 1681.76 3704.61 1658.57 3719.84 1635.44C3742.31 1601.32 3764.33 1566.91 3786.34 1532.5C3817.66 1483.56 3849.24 1434.74 3883.75 1387.97C3890.37 1378.99 3897.14 1370.13 3904.09 1361.41C3902.8 1385.84 3903.22 1410.39 3905.59 1434.75C3907.49 1454.24 3911.24 1473.5 3917.09 1492.19C3920.04 1501.59 3923.31 1511.06 3927.88 1519.81C3932.93 1529.51 3939.41 1538.4 3946.56 1546.66C3959.28 1561.34 3973.97 1574.29 3989.44 1586C4004.48 1597.39 4020.47 1607.32 4037.44 1615.56C4041.61 1617.59 4045.81 1619.6 4050.09 1621.38C4056.19 1623.91 4062.48 1625.94 4068.81 1627.81C4074.12 1629.38 4079.46 1630.82 4084.72 1632.53C4089.82 1634.19 4094.82 1636.18 4099.78 1638.22C4121.96 1647.33 4143.52 1657.96 4166.28 1665.62C4179.6 1670.11 4193.18 1673.91 4206.81 1677.31C4236.68 1684.77 4267.08 1689.91 4297.72 1692.84C4343.84 1697.26 4390.35 1696.7 4436.44 1692.22C4457.64 1690.16 4478.83 1687.29 4499.81 1683.56C4534.34 1677.43 4568.23 1668.32 4602.44 1660.69C4607.02 1659.67 4611.6 1658.58 4616.19 1657.62C4619.76 1656.88 4623.33 1656.25 4626.91 1655.56C4631.51 1654.68 4636.13 1653.75 4640.75 1652.91C4648.43 1651.51 4656.14 1650.29 4663.84 1649.03C4683.66 1645.79 4703.5 1642.75 4723.34 1639.62C4739.89 1637.02 4756.46 1634.45 4772.97 1631.62C4789.29 1628.83 4805.56 1625.71 4821.91 1623.06C4851.18 1618.33 4880.63 1614.56 4909.78 1609.09C4917.78 1607.59 4925.75 1605.95 4933.69 1604.16C4940.19 1602.69 4946.74 1601.16 4953 1598.84C4957.14 1597.31 4960.99 1595.3 4964.88 1593.22C4967.72 1591.7 4970.57 1590.2 4973.41 1588.66C4982.44 1583.73 4991.5 1578.22 4998.19 1570.25C5004.49 1562.73 5007.23 1553.32 5009 1543.84C5009.62 1540.54 5010.13 1537.23 5010.66 1533.91C5011.26 1530.12 5011.83 1526.37 5011.94 1522.53C5012.17 1513.95 5011.21 1505.39 5011.19 1496.81C5011.13 1478.13 5010.67 1459.44 5009.84 1440.78C5009.06 1423.07 5007.91 1405.38 5006.78 1387.69C5005.39 1365.95 5003.94 1344.2 5002.53 1322.47C5004.79 1319.46 4991.67 1305.77 4973.19 1291.91C4954.71 1278.04 4937.89 1269.24 4935.62 1272.25C4937.16 1295.85 4938.71 1319.46 4940.22 1343.06C4942.34 1376.23 4944.15 1409.41 4944.25 1442.66C4944.26 1447.15 4944.31 1451.66 4944.53 1456.16C4944.82 1461.82 4945.25 1467.46 4944.97 1473.12C4944.81 1476.36 4944.29 1479.55 4943.78 1482.75C4943.26 1486.04 4942.74 1489.32 4942.12 1492.59C4940.66 1500.45 4938.59 1508.49 4933.94 1515.12C4926.03 1526.4 4912.82 1533.03 4900.97 1539.31C4896.63 1541.61 4892.39 1543.98 4887.78 1545.69C4882.48 1547.65 4876.96 1548.99 4871.47 1550.28C4864.16 1552 4856.83 1553.49 4849.47 1554.94C4824.64 1559.8 4799.53 1563.23 4774.53 1567.03C4765.07 1568.47 4755.62 1569.94 4746.19 1571.56C4733.62 1573.72 4721.1 1576.13 4708.53 1578.28C4698.64 1579.97 4688.72 1581.57 4678.81 1583.12C4656.21 1586.68 4633.62 1590.18 4611.03 1593.78C4599.43 1595.63 4587.81 1597.46 4576.25 1599.56C4571.62 1600.41 4567 1601.33 4562.38 1602.22C4558.77 1602.91 4555.15 1603.57 4551.56 1604.31C4546.95 1605.27 4542.35 1606.35 4537.75 1607.38C4509.7 1613.64 4481.87 1620.91 4453.72 1626.69C4420.31 1633.55 4386.36 1638.04 4352.34 1640.47C4292.49 1644.74 4231.98 1642.11 4173.09 1630.22C4157.98 1627.17 4143 1623.55 4128.19 1619.28C4118.83 1616.59 4109.49 1613.69 4100.38 1610.25C4083.82 1604.01 4067.83 1596.4 4051.53 1589.53C4046.23 1587.29 4040.91 1585.08 4035.5 1583.09C4030.3 1581.18 4025.03 1579.48 4019.72 1577.91C4011.75 1575.55 4003.68 1573.41 3996.03 1570.16C3993.89 1566.66 3991.93 1563.03 3990.34 1559.25C3988.38 1554.56 3986.67 1549.76 3985.06 1544.94C3981.53 1534.34 3978.7 1523.49 3976.53 1512.53C3974.19 1500.69 3972.74 1488.72 3971.78 1476.69C3970.92 1465.86 3970.44 1455.02 3970.31 1444.16C3970.15 1430.56 3970.58 1416.97 3971.53 1403.41C3972.41 1390.95 3973.69 1378.53 3975.78 1366.22C3978.1 1352.58 3981.27 1339.08 3985.28 1325.84C3987.82 1317.48 3990.65 1309.18 3994.06 1301.12C3999.06 1289.32 4005.2 1278.06 4011.75 1267.06C4016.52 1259.05 4021.51 1251.12 4026.84 1243.47C4031.67 1236.55 4036.8 1229.86 4042.03 1223.25C4048.28 1215.36 4054.66 1207.57 4060.88 1199.66C4062.51 1197.57 4064.14 1195.48 4065.75 1193.38C4066.84 1191.95 4067.87 1190.47 4069.03 1189.09C4070.55 1187.29 4072.2 1185.62 4073.91 1184C4079.7 1178.48 4086.19 1173.68 4091.69 1167.84C4095.05 1164.28 4098.17 1160.21 4099.5 1155.41C4099.9 1153.96 4100.13 1152.44 4100.16 1150.94C4100.23 1146.41 4098.64 1142.29 4095.91 1138.72C4094.89 1137.4 4093.87 1136.04 4092.75 1134.81C4090.3 1132.14 4087.86 1129.45 4085.19 1127C4079.77 1122.04 4074.29 1117.15 4068.5 1112.62C4067 1111.46 4065.46 1110.35 4063.94 1109.22C4065.68 1108.94 4067.43 1108.72 4069.16 1108.38C4073.17 1107.58 4077.17 1106.57 4080.88 1104.81C4081.92 1104.31 4082.96 1103.76 4083.94 1103.12C4086.9 1101.2 4089.22 1098.63 4090.84 1095.5C4092.12 1093.05 4092.37 1090.8 4090.94 1088.28C4090.39 1087.31 4089.86 1086.31 4089.16 1085.44C4086.95 1082.68 4084.78 1079.84 4082.22 1077.41C4075.38 1070.91 4068.41 1064.56 4061 1058.72C4057.45 1055.92 4053.77 1053.29 4050.03 1050.75C4061.79 1043.07 4073.52 1035.3 4085.09 1027.34C4087.67 1030.77 4090.23 1034.2 4092.97 1037.5C4101.91 1048.3 4112.18 1057.95 4123 1066.84C4133.25 1075.27 4143.98 1083.14 4155.41 1089.91C4159.29 1092.2 4163.29 1094.3 4167.34 1096.28C4178.03 1101.5 4189.17 1105.78 4200.62 1108.97C4205.35 1110.29 4210.12 1111.42 4214.94 1112.38C4219.56 1113.29 4224.19 1114.08 4228.91 1114.25C4236.01 1114.51 4243.11 1113.62 4250.06 1112.22C4255.09 1111.2 4260.07 1109.96 4264.91 1108.22C4272.34 1105.55 4279.4 1101.98 4286.53 1098.62C4292.56 1095.79 4298.71 1093.24 4304.84 1090.62C4312.28 1087.46 4319.68 1084.24 4326.78 1080.38C4331.71 1077.69 4336.52 1074.74 4341.25 1071.72C4350.39 1065.89 4359.18 1059.52 4367.5 1052.56C4377.99 1043.79 4386.72 1033.22 4396.34 1023.56C4406.26 1013.62 4417.1 1004.6 4427.94 995.688C4442.77 983.49 4457.95 971.687 4472.16 958.75C4477.3 954.069 4482.51 949.472 4487.19 944.312C4496.45 934.092 4504.15 922.501 4509.47 909.75C4513.53 900.013 4516.15 889.707 4517.28 879.219C4517.8 874.385 4517.93 869.545 4517.94 864.688C4517.94 858.655 4517.88 852.603 4516.75 846.656C4516.08 843.11 4514.82 839.786 4513.59 836.406C4512.79 834.209 4512.03 832.004 4511.22 829.812C4508.48 822.444 4505.31 815.263 4500.66 808.875C4497.44 804.467 4493.81 800.402 4489.97 796.531C4487.9 794.449 4485.79 792.419 4483.62 790.438C4476.51 783.92 4469.04 777.797 4461.28 772.062C4454.38 766.957 4447.25 762.142 4439.72 758C4434.52 755.138 4429.04 752.638 4423.25 751.25C4417.87 749.962 4412.32 749.706 4406.81 749.906C4401.13 750.112 4395.48 750.805 4389.81 751.188C4386.04 751.442 4382.3 751.573 4378.56 752.219C4370.08 753.684 4361.9 756.424 4353.41 757.875C4339.98 760.17 4326.04 760.698 4313.31 765.969C4298.31 772.181 4286.29 783.49 4272.69 792.062C4252.34 804.892 4230.93 816.022 4211.69 830.562C4195.58 842.736 4181.7 857.548 4165.84 870.031C4149.2 883.138 4131.4 894.684 4114.16 906.969C4101.9 915.702 4089.75 924.563 4077.53 933.344C4070.61 938.319 4063.61 943.193 4056.66 948.125C4056.41 947.798 4056.15 947.483 4055.91 947.156C4049.14 938.066 4042.58 928.847 4036.59 919.219C4031.42 910.893 4026.73 902.28 4022.62 893.375C4015.26 877.389 4009.52 860.712 4003.88 844.062C4000.52 834.189 3997.1 824.321 3993.88 814.406C3992.21 809.301 3990.68 804.162 3989.09 799.031C3997.1 795.013 4005.02 790.855 4012.75 786.312C4026.19 778.415 4039.24 769.845 4052.75 762.062C4071 751.546 4090.07 742.425 4109.16 733.531C4115.7 730.482 4122.27 727.458 4128.84 724.469C4137.07 720.728 4145.29 717.049 4153.69 713.719C4181.63 702.641 4210.52 694.244 4239.16 685.188C4248.09 682.36 4257.03 679.419 4265.88 676.312C4268.84 675.272 4271.77 674.212 4274.72 673.125C4276.59 672.435 4278.43 671.698 4280.34 671.125C4287.04 669.115 4294.07 668.365 4300.88 666.844C4304.92 665.94 4308.97 664.837 4312.66 662.906C4315.84 661.241 4318.66 658.942 4320.62 655.906C4321.37 654.748 4322.1 653.477 4322.31 652.094C4322.74 649.377 4321.19 646.617 4319.69 644.5C4318.7 643.116 4317.72 641.742 4316.59 640.469C4314.27 637.835 4311.91 635.24 4309.38 632.812C4305.27 628.887 4301.05 625.069 4296.69 621.438C4291.99 617.535 4287.11 613.825 4282.19 610.219C4278.68 607.651 4275.03 605.293 4271.38 602.938C4269.38 601.649 4267.32 600.453 4265.25 599.281C4261.29 597.039 4257.11 595.105 4252.75 593.781C4246.8 591.972 4240.57 591.285 4234.41 590.594C4229.47 590.04 4224.61 589.286 4219.62 589.594C4212.46 590.035 4205.48 591.922 4198.34 592.562C4193.23 593.021 4188.07 593.062 4182.94 593.188C4174.82 593.386 4166.68 593.484 4158.56 593.188C4151.08 592.914 4143.61 592.346 4136.19 591.312C4131.41 590.648 4126.67 589.691 4121.94 588.812C4116.87 587.873 4111.81 586.962 4106.75 586C4095.49 583.861 4084.23 581.532 4073.22 578.344C4065.98 576.25 4058.82 573.809 4052 570.594C4045.05 567.316 4038.59 563.212 4032.22 558.938C4026.57 555.149 4020.99 551.246 4015.38 547.406C4015.47 547.473 4015 547.154 4015.09 547.219C4013.61 546.15 4012.12 545.095 4010.62 544.031C4010.59 544.01 4010.56 543.991 4010.53 543.969C4010.99 543.807 4009.73 543.385 4009.34 543.094C4008.95 542.802 4008.58 542.51 4008.19 542.219C4007.27 541.533 4006.32 540.884 4005.41 540.188C4005.61 540.369 4005.11 539.971 4004.75 539.688C4004.65 539.617 4004.56 539.539 4004.47 539.469C4004.48 539.478 4004.43 539.432 4004.44 539.438C4004.41 539.414 4004.37 539.398 4004.34 539.375C4004.3 539.345 4004.3 539.348 4004.25 539.312C4004.16 539.238 4004.09 539.137 4004 539.062C4003.96 539.035 4003.91 539.028 4003.88 539C4003.84 538.979 4003.81 538.959 4003.78 538.938C4003.76 538.919 4003.75 538.9 4003.72 538.875C4003.66 538.835 4003.62 538.79 4003.56 538.75C4003.51 538.706 4003.51 538.685 4003.44 538.625C4003.01 538.254 4002.56 537.892 4002.12 537.531C4002.05 537.471 4001.98 537.405 4001.91 537.344C4001.9 537.335 4001.89 537.325 4001.88 537.312C4001.59 537.06 4001.31 536.791 4001.03 536.531C3999 534.046 3997.17 531.396 3995.41 528.719C3992.7 524.607 3990.14 520.408 3987.41 516.312C3985.4 513.298 3983.38 510.199 3981.19 507.312C3979.88 505.583 3978.44 503.929 3977.06 502.25C3975.55 500.409 3974.06 498.515 3972.47 496.75C3969.35 493.305 3966.1 489.997 3962.72 486.812C3955.83 480.322 3948.48 474.351 3940.97 468.594C3938.78 464.521 3937.13 460.097 3936.06 455.688C3934.45 449.05 3933.79 442.251 3932.62 435.531C3932.22 433.199 3931.83 430.801 3931.28 428.5C3930.21 424.033 3928.57 419.72 3927.5 415.25C3925.83 408.309 3924.57 401.243 3921.56 394.719C3918.76 388.637 3914.18 383.347 3909.53 378.625C3907.38 376.441 3905.23 374.283 3902.97 372.219C3899.6 369.151 3896.19 366.13 3892.66 363.25C3888.34 359.732 3883.93 356.315 3879.44 353.031C3875.9 350.449 3872.27 348.026 3868.59 345.656C3866.2 344.117 3863.73 342.697 3861.25 341.312C3859.69 340.44 3858.09 339.641 3856.47 338.875C3854.87 338.121 3852.93 337.38 3851.22 336.844C3848.77 336.079 3846.43 335.719 3844.19 336ZM3898.38 451.969C3899.29 452.836 3900.18 453.724 3901.09 454.594C3901.75 455.224 3902.41 455.864 3903.09 456.469C3906.57 459.556 3909.95 462.754 3913.53 465.719C3916.86 468.473 3920.32 471.057 3923.75 473.688C3923.89 473.885 3924.02 474.082 3924.16 474.281C3925.94 476.962 3927.67 479.726 3929.41 482.438C3933.73 489.174 3938.21 495.756 3943.34 501.906C3948.24 507.769 3953.62 513.214 3959.12 518.5C3982.07 540.54 4007.5 559.909 4033.66 577.969C4046.66 586.947 4059.64 595.906 4073.12 604.156C4087.13 612.724 4101.65 620.558 4117.09 626.219C4130.26 631.046 4143.88 634.234 4157.59 637.062C4154.18 638.127 4150.78 639.216 4147.38 640.281C4131.01 645.391 4114.64 650.557 4098.59 656.594C4092.23 658.989 4085.89 661.471 4079.62 664.125C4067.51 669.258 4055.55 674.848 4043.62 680.406C4024.46 689.336 4005.33 698.534 3987 709.094C3979.69 713.305 3972.52 717.721 3965.34 722.156C3954.54 688.163 3943.6 654.197 3934.53 619.688C3930.56 604.572 3927 589.357 3923.94 574.031C3920.61 557.394 3917.84 540.657 3914.62 524C3913.28 517.033 3911.88 510.064 3910.25 503.156C3908 493.621 3905.35 484.198 3903.12 474.656C3901.89 469.338 3900.9 463.974 3899.81 458.625C3899.36 456.407 3898.87 454.183 3898.38 451.969ZM4450.72 804.906C4450.91 808.336 4450.97 811.796 4450.97 815.219C4450.96 820.873 4450.65 826.492 4449.84 832.094C4448.29 842.849 4445.08 853.329 4440.38 863.125C4435.06 874.195 4427.89 884.307 4419.5 893.25C4415.24 897.786 4410.6 901.908 4406 906.094C4393.41 917.566 4380 928.136 4366.81 938.906C4356.34 947.454 4345.83 956.023 4335.97 965.281C4326.53 974.146 4318.16 984.044 4308.88 993.062C4300.58 1001.13 4291.31 1008.17 4281.75 1014.66C4274.14 1019.82 4266.27 1024.73 4258.09 1028.94C4249.44 1033.39 4240.41 1037.05 4231.47 1040.88C4226.5 1043 4221.63 1045.24 4216.75 1047.56C4209.33 1051.1 4201.83 1054.7 4193.88 1056.88C4184.85 1059.34 4175.3 1061.09 4165.91 1060.75C4159.86 1060.53 4153.84 1059.21 4147.97 1057.81C4144.64 1057.02 4141.38 1055.94 4138.09 1054.94C4130.45 1043.35 4123.6 1031.27 4116.09 1019.59C4114.02 1016.37 4111.73 1013.31 4109.53 1010.19C4116.19 1005.49 4122.9 1000.86 4129.53 996.125C4146.84 983.755 4163.98 971.162 4181.38 958.906C4198.29 946.988 4215.64 935.59 4231.91 922.781C4243.81 913.407 4254.56 902.751 4266 892.844C4271.39 888.182 4276.99 883.768 4282.78 879.625C4300.61 866.878 4320.02 856.639 4338.53 844.969C4346.49 839.952 4353.84 834.094 4361.59 828.781C4368.47 824.07 4375.7 819.822 4383.69 817.312C4394.77 813.832 4406.48 813.229 4417.88 811.281C4426.75 809.764 4435.32 806.789 4444.22 805.438C4446.37 805.11 4448.55 805.044 4450.72 804.906Z" fill="#000000" stroke="none"/>
</g>
</g>
</svg>
